<svg id="Слой_1" data-name="Слой 1" xmlns="http://www.w3.org/2000/svg" viewBox="0 0 3500 2000"><defs><style>.cls-1{fill:#f7caff;}.cls-2{fill:#d571ff;}.cls-3{fill:#fff;}.cls-4{fill:#9ec8ff;}.cls-5{fill:#f37168;}.cls-6{fill:#9bd6e8;}.cls-7{fill:#3a384d;}.cls-8{fill:#f09959;}.cls-9{fill:#e38540;}.cls-10{fill:#7a4e34;}.cls-11{fill:#d54a41;}.cls-12,.cls-13{fill:#99bbeb;}.cls-13{opacity:0.2;}.cls-14{fill:#2e2d3d;}.cls-15{fill:#d5e1e8;}.cls-16{fill:#bdccd4;}.cls-17{fill:#2e5b9a;}.cls-18{fill:#6791c9;}.cls-19{fill:#75a1de;}.cls-20{fill:#f2e5de;}.cls-21{fill:#303c60;}.cls-22{fill:#74b570;}.cls-23{fill:#9cd499;}</style></defs><path class="cls-1" d="M670.22,256.2C1085.7,102,1508,238.32,1794.36,535.33s887.44-205,1206.2,91.52c217.54,202.36,117.9,722.64-180.39,948-405.43,306.3-1638.42,150.88-1905.13,98.75-307.28-60-531.92-242.25-623.19-463.39C71.92,677.35,486.62,324.36,670.22,256.2Z"/><path class="cls-2" d="M2090.33,470.48a343.43,343.43,0,0,0,2.16-38.29c0-6.84-.23-13.62-.62-20.35l-63.28-20.47a278.39,278.39,0,0,0-22.41-75.82l42-51.63a341.91,341.91,0,0,0-33.23-48.31l-63.29,20.65A281.06,281.06,0,0,0,1889,188.1l3.6-66.49A339.23,339.23,0,0,0,1837.33,102L1798.25,156a281.26,281.26,0,0,0-79-2.07L1683.07,98a338,338,0,0,0-56.21,16.61l.08,66.59A281.26,281.26,0,0,0,1561.83,226L1499.75,202A341.77,341.77,0,0,0,1464,248.49l39.18,53.78a278.47,278.47,0,0,0-26.41,74.52l-64.26,17.1a343.61,343.61,0,0,0-2.16,38.3c0,6.83.23,13.61.62,20.34L1474.24,473a278.29,278.29,0,0,0,22.41,75.82l-42,51.63a341.34,341.34,0,0,0,33.23,48.31l63.29-20.65a281.06,281.06,0,0,0,62.65,48.16l-3.6,66.49a338.29,338.29,0,0,0,55.24,19.58l39.08-53.93a281.26,281.26,0,0,0,79,2.07l36.18,55.92A338,338,0,0,0,1876,749.79l-.08-66.59A280.74,280.74,0,0,0,1941,638.42l62.08,24a342.3,342.3,0,0,0,35.76-46.48l-39.18-53.79a278.12,278.12,0,0,0,26.41-74.52ZM1751.42,566a133.78,133.78,0,1,1,133.77-133.77A133.77,133.77,0,0,1,1751.42,566Z"/><path class="cls-3" d="M1933.87,584.76a5,5,0,0,1-3.84-8.2,226.33,226.33,0,0,0,39.88-218,5,5,0,1,1,9.45-3.25A236.29,236.29,0,0,1,1937.72,583,5,5,0,0,1,1933.87,584.76Z"/><path class="cls-3" d="M1914.5,269a5,5,0,0,1-3.42-1.35,224.67,224.67,0,0,0-77.78-47.93,5,5,0,1,1,3.41-9.4,234.66,234.66,0,0,1,81.22,50,5,5,0,0,1-3.43,8.64Z"/><path class="cls-3" d="M1699.53,213.26a5,5,0,0,1-1.22-9.85,237,237,0,0,1,57.92-7.16,5,5,0,0,1,0,10,227,227,0,0,0-55.48,6.86A5.15,5.15,0,0,1,1699.53,213.26Z"/><path class="cls-4" d="M1015.14,1317.52a237.18,237.18,0,0,0,1.49-26.53q0-7.1-.43-14.09l-43.82-14.18a192.72,192.72,0,0,0-15.52-52.51l29.06-35.76a237.24,237.24,0,0,0-23-33.47l-43.84,14.31a194.48,194.48,0,0,0-43.39-33.36l2.49-46a233.71,233.71,0,0,0-38.26-13.56l-27.07,37.35a195.12,195.12,0,0,0-54.72-1.43l-25.06-38.74A234.06,234.06,0,0,0,694.12,1071l.06,46.12a194.56,194.56,0,0,0-45.1,31l-43-16.59a236.45,236.45,0,0,0-24.77,32.2L608.45,1201a192.88,192.88,0,0,0-18.3,51.62l-44.51,11.84a239.54,239.54,0,0,0-1.49,26.52c0,4.74.16,9.43.43,14.1l43.83,14.18a192.82,192.82,0,0,0,15.52,52.51l-29.06,35.76a236.57,236.57,0,0,0,23,33.46l43.83-14.3a195.06,195.06,0,0,0,43.4,33.36l-2.5,46a234.76,234.76,0,0,0,38.27,13.56L748,1482.32a195.12,195.12,0,0,0,54.72,1.43l25.06,38.74A234.45,234.45,0,0,0,866.66,1511l0-46.12a194.56,194.56,0,0,0,45.1-31l43,16.59a236.38,236.38,0,0,0,24.76-32.2L952.34,1381a192.51,192.51,0,0,0,18.29-51.62Zm-234.75,66.13A92.66,92.66,0,1,1,873.05,1291,92.66,92.66,0,0,1,780.39,1383.65Z"/><path class="cls-3" d="M906.77,1398.21a5,5,0,0,1-3.84-8.2,155.28,155.28,0,0,0,27.35-149.5,5,5,0,1,1,9.45-3.26,165.28,165.28,0,0,1-29.11,159.16A5,5,0,0,1,906.77,1398.21Z"/><path class="cls-3" d="M893.35,1179.51a5,5,0,0,1-3.42-1.36,154.11,154.11,0,0,0-53.35-32.87,5,5,0,0,1,3.41-9.4,164,164,0,0,1,56.79,35,5,5,0,0,1-3.43,8.64Z"/><path class="cls-3" d="M744.45,1140.89a5,5,0,0,1-1.22-9.84,165.3,165.3,0,0,1,40.5-5,5,5,0,0,1,0,10,155.63,155.63,0,0,0-38.05,4.7A5.17,5.17,0,0,1,744.45,1140.89Z"/><path class="cls-2" d="M2294.59,725.25c0-2.59-.08-5.16-.22-7.71l32.84-26.36a175.69,175.69,0,0,0-11.93-37.73l-42.4-3.2a140.9,140.9,0,0,0-36.71-39l-.14-42.25a174.61,174.61,0,0,0-37.59-14.5l-29,31.18a141.22,141.22,0,0,0-52.11,4.09l-33.23-26.32A176.27,176.27,0,0,0,2049,583.89l6.29,41.88a140.75,140.75,0,0,0-29.6,43.2l-41.34,9.58a176.31,176.31,0,0,0-6.11,39.85l36.41,21.05a139.52,139.52,0,0,0,15.58,51.45L2012,829.09a177.63,177.63,0,0,0,26.79,29.15l39-15.3a139.52,139.52,0,0,0,51.48,20.43l18.4,37.89c2.19.08,4.39.13,6.61.13a177.07,177.07,0,0,0,32.28-3L2199,858.3a140.11,140.11,0,0,0,48.44-28.12l41,9.22a176.54,176.54,0,0,0,21.86-32.29l-23.79-34.93A140,140,0,0,0,2294.59,725.25Zm-141.88,61.83A59.11,59.11,0,1,1,2211.82,728,59.12,59.12,0,0,1,2152.71,787.08Z"/><path class="cls-2" d="M2841,384.73h-50.8a35.62,35.62,0,0,1-35.58-35.58v-50.8a35.62,35.62,0,0,1,35.58-35.58H2841a35.62,35.62,0,0,1,35.58,35.58v50.8A35.62,35.62,0,0,1,2841,384.73Zm-50.8-108a21.6,21.6,0,0,0-21.58,21.58v50.8a21.6,21.6,0,0,0,21.58,21.58H2841a21.6,21.6,0,0,0,21.58-21.58v-50.8A21.6,21.6,0,0,0,2841,276.77Z"/><path class="cls-2" d="M2601.94,384.73h-50.81a35.62,35.62,0,0,1-35.57-35.58v-50.8a35.62,35.62,0,0,1,35.57-35.58h50.81a35.62,35.62,0,0,1,35.57,35.58v50.8A35.62,35.62,0,0,1,2601.94,384.73Zm-50.81-108a21.6,21.6,0,0,0-21.57,21.58v50.8a21.6,21.6,0,0,0,21.57,21.58h50.81a21.6,21.6,0,0,0,21.57-21.58v-50.8a21.6,21.6,0,0,0-21.57-21.58Z"/><path class="cls-5" d="M2579.71,355.15h-.29a6,6,0,0,1-4.47-2.34l-36.51-47.63a6,6,0,0,1,9.52-7.3l32.2,42,84.07-90.07A6,6,0,0,1,2673,258l-88.9,95.25A6,6,0,0,1,2579.71,355.15Z"/><path class="cls-1" d="M3008.89,1696.67c-208-10.17-915.46,7-1130.63,13.77s-464.93-8.86-594.67-31.76-879.67,2-845.64,63.52,334.13,27.55,674.45,52.3,1105.7-3.09,1278.34,0,331-6.19,553.45-18.56S3129.45,1702.56,3008.89,1696.67Z"/><rect class="cls-2" x="448.4" y="409" width="434.74" height="712.57"/><rect class="cls-3" x="471.17" y="423.52" width="397.68" height="670.89"/><path class="cls-6" d="M590.12,692.55c15-32.2,40.3-42.51,81.9-42.51,49.54,0,75.26,17.94,82.55,44.07C665.86,695.32,590.12,692.55,590.12,692.55Z"/><path class="cls-7" d="M654.73,493.42c-21,5.89-20.05,17.67-27,28.61s-22.18,18.23-24,25.52,4.68,22.48-3,31-10.33,12.76-7.29,21.27,9.72,21.87,10.33,23.69,9.11,14.58,19.44,16.41,29.77,4.86,39.49,9.11,41-5.44,58.33-4.84S750.11,632,748.9,623.49s12.79-25.52,12.76-40.1c0-15.66-18.23-27.34-23.09-37.67s.61-28.55-17.62-39.35c-11.52-6.82-19.44-6.21-28.55-9.25S668.09,489.67,654.73,493.42Z"/><path class="cls-8" d="M680.24,675.74c-4.74,7-8.22,7.29-13.36,0-4.1-5.79-12.15-19-12.15-25.65v-66.7a12.18,12.18,0,0,1,12.15-12.15h13.36a12.19,12.19,0,0,1,12.16,12.15v66.7C692.4,656.78,684.5,669.46,680.24,675.74Z"/><path class="cls-9" d="M680.24,571.24H666.88a12.18,12.18,0,0,0-12.15,12.15V642.9c15,4.78,28.7-4.72,37.67-15.42V583.39A12.19,12.19,0,0,0,680.24,571.24Z"/><ellipse class="cls-8" cx="673.56" cy="571.92" rx="40.4" ry="55.05"/><path class="cls-7" d="M692.4,528.1C666.88,571.24,629.21,567,629.21,567s.91-57.11,30.83-60.15,47.54,9,53.62,28.79,0,32.88,0,32.88a52.5,52.5,0,0,1-14.58-19.75A141.49,141.49,0,0,1,692.4,528.1Z"/><path class="cls-8" d="M637.29,571.07c3.78,7.95,2.55,16.45-2.76,19s-12.67-1.89-16.44-9.85-2.55-16.45,2.76-19S633.51,563.11,637.29,571.07Z"/><path class="cls-8" d="M708,571.07c-3.78,7.95-2.55,16.45,2.76,19s12.66-1.89,16.44-9.85,2.55-16.45-2.76-19S711.78,563.11,708,571.07Z"/><path class="cls-3" d="M688.75,601.77s-6.8,8.82-15.19,8.82-15.19-8.82-15.19-8.82Z"/><path class="cls-2" d="M721.66,779.88h-102a11.86,11.86,0,0,1,0-23.72h102a11.86,11.86,0,0,1,0,23.72Z"/><path class="cls-2" d="M740.34,816.34H600.94a11.87,11.87,0,0,1,0-23.73h139.4a11.87,11.87,0,0,1,0,23.73Z"/><path class="cls-2" d="M840.18,947.43H501.1a6.89,6.89,0,0,1,0-13.77H840.18a6.89,6.89,0,0,1,0,13.77Z"/><path class="cls-2" d="M840.18,979.43H501.1a6.89,6.89,0,0,1,0-13.77H840.18a6.89,6.89,0,0,1,0,13.77Z"/><path class="cls-2" d="M840.18,1011.42H501.1a6.88,6.88,0,0,1,0-13.76H840.18a6.88,6.88,0,0,1,0,13.76Z"/><path class="cls-2" d="M792.75,700.47H548.53a12.31,12.31,0,0,1-12.29-12.29V463.08a12.31,12.31,0,0,1,12.29-12.29H792.75a12.31,12.31,0,0,1,12.3,12.29v225.1A12.31,12.31,0,0,1,792.75,700.47ZM548.53,460.79a2.32,2.32,0,0,0-2.29,2.29v225.1a2.32,2.32,0,0,0,2.29,2.29H792.75a2.32,2.32,0,0,0,2.3-2.29V463.08a2.32,2.32,0,0,0-2.3-2.29Z"/><polygon class="cls-2" points="583.77 847.29 590.84 861.62 606.65 863.91 595.21 875.07 597.91 890.81 583.77 883.38 569.63 890.81 572.33 875.07 560.89 863.91 576.7 861.62 583.77 847.29"/><polygon class="cls-2" points="641.68 847.29 648.75 861.62 664.57 863.91 653.12 875.07 655.82 890.81 641.68 883.38 627.54 890.81 630.24 875.07 618.8 863.91 634.61 861.62 641.68 847.29"/><polygon class="cls-2" points="699.6 847.29 706.67 861.62 722.48 863.91 711.04 875.07 713.74 890.81 699.6 883.38 685.46 890.81 688.16 875.07 676.72 863.91 692.53 861.62 699.6 847.29"/><polygon class="cls-2" points="757.51 847.29 764.58 861.62 780.39 863.91 768.95 875.07 771.65 890.81 757.51 883.38 743.37 890.81 746.07 875.07 734.63 863.91 750.44 861.62 757.51 847.29"/><rect class="cls-2" x="1417.62" y="409" width="434.74" height="712.57"/><rect class="cls-3" x="1440.38" y="423.52" width="397.68" height="670.89"/><path class="cls-10" d="M1578.23,568.28c0,31.92,19.21,83.42,64.54,81.76s55.36-50.74,57.12-64.59S1578.23,568.28,1578.23,568.28Z"/><path class="cls-11" d="M1559.34,692.55c15-32.2,40.3-42.51,81.9-42.51,49.53,0,75.25,17.94,82.54,44.07C1635.08,695.32,1559.34,692.55,1559.34,692.55Z"/><path class="cls-8" d="M1649.46,675.74c-4.75,7-8.22,7.29-13.37,0-4.09-5.79-12.15-19-12.15-25.65v-66.7a12.19,12.19,0,0,1,12.15-12.15h13.37a12.19,12.19,0,0,1,12.15,12.15v66.7C1661.61,656.78,1653.71,669.46,1649.46,675.74Z"/><path class="cls-9" d="M1649.46,571.24h-13.37a12.19,12.19,0,0,0-12.15,12.15V642.9c15,4.78,28.71-4.72,37.67-15.42V583.39A12.19,12.19,0,0,0,1649.46,571.24Z"/><ellipse class="cls-8" cx="1642.77" cy="571.92" rx="40.4" ry="55.05"/><path class="cls-10" d="M1665,530.07c-4.8,16.93-15.32,16.74-30,22.3s-21.68,11.15-26.48,22c-6.13,13.81,2.78,54.08,2.78,54.08s-37.15-27.8-32.86-71.52,30.08-60.64,54.33-60.64,33.49,14.78,33.49,14.78,12.92.05,25.14,14.53c16.43,19.46,11.37,66.71,0,83.64s-19,22.24-18.7,21.48,10.61-39.64,5.06-63.68S1665,530.07,1665,530.07Z"/><path class="cls-3" d="M1658,601.77s-6.8,8.82-15.19,8.82-15.18-8.82-15.18-8.82Z"/><path class="cls-2" d="M1690.87,779.88h-102a11.86,11.86,0,1,1,0-23.72h102a11.86,11.86,0,1,1,0,23.72Z"/><path class="cls-2" d="M1709.55,816.34H1570.16a11.87,11.87,0,1,1,0-23.73h139.39a11.87,11.87,0,1,1,0,23.73Z"/><path class="cls-2" d="M1809.39,947.43H1470.32a6.89,6.89,0,1,1,0-13.77h339.07a6.89,6.89,0,1,1,0,13.77Z"/><path class="cls-12" d="M1809.39,979.43H1470.32a6.89,6.89,0,1,1,0-13.77h339.07a6.89,6.89,0,1,1,0,13.77Z"/><path class="cls-2" d="M1809.39,1011.42H1470.32a6.88,6.88,0,1,1,0-13.76h339.07a6.88,6.88,0,1,1,0,13.76Z"/><path class="cls-2" d="M1762,700.47H1517.74a12.31,12.31,0,0,1-12.29-12.29V463.08a12.31,12.31,0,0,1,12.29-12.29H1762a12.31,12.31,0,0,1,12.29,12.29v225.1A12.31,12.31,0,0,1,1762,700.47ZM1517.74,460.79a2.32,2.32,0,0,0-2.29,2.29v225.1a2.32,2.32,0,0,0,2.29,2.29H1762a2.32,2.32,0,0,0,2.29-2.29V463.08a2.32,2.32,0,0,0-2.29-2.29Z"/><polygon class="cls-2" points="1552.98 847.29 1560.05 861.62 1575.86 863.91 1564.42 875.07 1567.12 890.81 1552.98 883.38 1538.84 890.81 1541.54 875.07 1530.1 863.91 1545.91 861.62 1552.98 847.29"/><polygon class="cls-2" points="1610.9 847.29 1617.97 861.62 1633.78 863.91 1622.34 875.07 1625.04 890.81 1610.9 883.38 1596.76 890.81 1599.46 875.07 1588.02 863.91 1603.83 861.62 1610.9 847.29"/><polygon class="cls-2" points="1668.81 847.29 1675.88 861.62 1691.69 863.91 1680.25 875.07 1682.95 890.81 1668.81 883.38 1654.67 890.81 1657.37 875.07 1645.93 863.91 1661.74 861.62 1668.81 847.29"/><polygon class="cls-2" points="1726.72 847.29 1733.8 861.62 1749.61 863.91 1738.17 875.07 1740.87 890.81 1726.72 883.38 1712.58 890.81 1715.28 875.07 1703.84 863.91 1719.65 861.62 1726.72 847.29"/><polygon class="cls-13" points="1466.49 1114.44 780.39 1114.44 828.92 411.65 1491.22 411.65 1466.49 1114.44"/><rect class="cls-2" x="852.46" y="278.66" width="593.79" height="973.26"/><rect class="cls-3" x="883.56" y="298.49" width="543.18" height="916.34"/><path class="cls-14" d="M1104.53,491c-.38-1.14-9.89-55.72-11-76.95s34.12-24.26,34.12-24.26,28.8-15.54,49.65-7.58,35,21.36,44.51,38-8.33,68.66-8.33,68.66Z"/><path class="cls-15" d="M1039.17,666.33c-.13-.89,2.44-22.37,2.53-23.24,4.8-45.24,60.56-58,116.19-58,65.37,0,109.72,12,116.8,59,.21,1.37,4,22.91,3.79,24.36C1157.32,670.12,1039.17,666.33,1039.17,666.33Z"/><path class="cls-8" d="M1169.12,620.24c-6.48,9.56-11.23,10-18.26,0-5.59-7.92-24.25-26-24.25-35.11l7.66-91a16.64,16.64,0,0,1,16.59-16.59h18.26a16.65,16.65,0,0,1,16.6,16.59l3.56,91C1189.28,594.26,1174.93,611.66,1169.12,620.24Z"/><path class="cls-9" d="M1169.12,477.51h-18.26a16.64,16.64,0,0,0-16.59,16.59l-6.65,80.76c20.5,6.52,48.18-6.74,60.42-21.36l-2.32-59.4A16.65,16.65,0,0,0,1169.12,477.51Z"/><path class="cls-16" d="M1097.34,591.77l29.27,54.09s15.66-12.88,17.18-10.36-2.78,34.42-2.78,34.42,34.87.48,36.39-1-7.08-34.64-3.54-34.64,14.18,9.6,14.18,9.6l32.68-52.07-7.18-1.75L1160,618.83l-57.26-28.18Z"/><polygon class="cls-11" points="1130.81 616.69 1152.55 631.28 1145.81 669.99 1175.13 668.36 1167.8 633.14 1185.82 616.69 1177.36 608.72 1139.27 608.72 1130.81 616.69"/><path class="cls-15" d="M1128.12,565.25l-26.88,25.59s27.39,48.71,28.9,48.71,23.25-26.86,23.25-26.86l13.91-.24,22,23,25.53-45.17-26-27.6s-22.24,43-26.28,44-4.07,1.51-7.34-1S1128.12,565.25,1128.12,565.25Z"/><ellipse class="cls-8" cx="1159.99" cy="478.43" rx="55.18" ry="75.19"/><path class="cls-8" d="M1110.46,477.27c5.16,10.87,3.47,22.47-3.78,25.91s-17.3-2.58-22.46-13.45-3.47-22.47,3.77-25.91S1105.3,466.4,1110.46,477.27Z"/><path class="cls-8" d="M1207,477.27c-5.16,10.87-3.47,22.47,3.77,25.91s17.3-2.58,22.46-13.45,3.48-22.47-3.77-25.91S1212.2,466.4,1207,477.27Z"/><path class="cls-3" d="M1184.47,509.28S1173.51,527,1160,527s-24.48-17.76-24.48-17.76Z"/><path class="cls-14" d="M1127.62,427.28c22.74-15.92,33-13.27,50,12.89s37.53,26.61,37.53,26.61l2.65-27.12s-25.41-49.15-59.52-42.7-53.5,37.14-53.5,37.14-1.66,57.55,3.1,59.51,5.3-18.57,8.71-22.74-3.41-23.88,1.14-33S1127.62,427.28,1127.62,427.28Z"/><path class="cls-14" d="M1200.77,456.85c7.94,8.69,4.93,43.21,9.1,42.83s5.69-33,4.55-36.39S1200.77,456.85,1200.77,456.85Z"/><path class="cls-2" d="M1282.74,785.22H1029.26a16.2,16.2,0,0,1,0-32.4h253.48a16.2,16.2,0,1,1,0,32.4Z"/><path class="cls-2" d="M1251.2,835H1060.81a16.21,16.21,0,1,1,0-32.41H1251.2a16.21,16.21,0,0,1,0,32.41Z"/><path class="cls-2" d="M1387.57,1014.07H924.44a9.41,9.41,0,0,1,0-18.81h463.13a9.41,9.41,0,0,1,0,18.81Z"/><path class="cls-2" d="M1387.57,1057.77H924.44a9.41,9.41,0,0,1,0-18.81h463.13a9.41,9.41,0,0,1,0,18.81Z"/><path class="cls-2" d="M1387.57,1101.47H924.44a9.4,9.4,0,1,1,0-18.8h463.13a9.4,9.4,0,1,1,0,18.8Z"/><path class="cls-2" d="M1322.79,674.92H989.21a15,15,0,0,1-15-15V352.52a15,15,0,0,1,15-14.95h333.58a15,15,0,0,1,15,14.95V660A15,15,0,0,1,1322.79,674.92ZM989.21,347.57a5,5,0,0,0-5,4.95V660a5,5,0,0,0,5,5h333.58a5,5,0,0,0,5-5V352.52a5,5,0,0,0-5-4.95Z"/><polygon class="cls-2" points="997.17 877.29 1006.83 896.86 1028.42 899.99 1012.8 915.23 1016.49 936.73 997.17 926.58 977.86 936.73 981.54 915.23 965.92 899.99 987.51 896.86 997.17 877.29"/><polygon class="cls-2" points="1076.27 877.29 1085.93 896.86 1107.53 899.99 1091.9 915.23 1095.59 936.73 1076.27 926.58 1056.96 936.73 1060.65 915.23 1045.02 899.99 1066.62 896.86 1076.27 877.29"/><polygon class="cls-2" points="1155.38 877.29 1165.03 896.86 1186.63 899.99 1171 915.23 1174.69 936.73 1155.38 926.58 1136.06 936.73 1139.75 915.23 1124.12 899.99 1145.72 896.86 1155.38 877.29"/><polygon class="cls-2" points="1234.48 877.29 1244.13 896.86 1265.73 899.99 1250.1 915.23 1253.79 936.73 1234.48 926.58 1215.16 936.73 1218.85 915.23 1203.22 899.99 1224.82 896.86 1234.48 877.29"/><polygon class="cls-2" points="1314.84 877.29 1324.49 896.86 1346.09 899.99 1330.46 915.23 1334.15 936.73 1314.84 926.58 1295.52 936.73 1299.21 915.23 1283.58 899.99 1305.18 896.86 1314.84 877.29"/><rect class="cls-17" x="1629.66" y="1191.63" width="778.55" height="29.01" rx="8.29"/><path class="cls-8" d="M2596.11,802.81c10.32,36.4-14.89,73.91-42.67,81.79s-47.6-16.85-57.92-53.25,3.82-72.29,31.6-80.17S2585.78,766.42,2596.11,802.81Z"/><path class="cls-8" d="M2440.37,1508.12s71.19,110.56,80.81,115.37,33.65,6,24.63,24-12.62,88.93-21,92.54-80.52,12-69.71,0,17.48-6,22.93-27.64,13.13-62.5,2.91-70.91-72.71-84.13-72.71-84.13Z"/><path class="cls-8" d="M2082.07,1555.6s-86.53,142.62-102.56,155.44-68.91,32-25.64,35.26,64.1-14.42,91.34-22.44,60.9-12.82,48.08-33.65-7.49-66.31,20.14-95.16S2082.07,1555.6,2082.07,1555.6Z"/><path class="cls-18" d="M2523.68,1224.87s-214.22-5.6-299.15,64.1c-49.68,75.32-169.86,297.55-179.21,322,6.41,6.41,42.47,18,58.5,16.37,47.27-56.37,109.76-105.1,134.61-149.31,30.62-54.49,40.06-81.73,89.74-86.54s161.86-20.83,195.51-20.83S2523.68,1224.87,2523.68,1224.87Z"/><polygon class="cls-17" points="2710.49 1746.68 2699.26 1746.68 2618.74 1410.73 2643.44 1410.73 2710.49 1746.68"/><polygon class="cls-17" points="2374.11 1746.68 2385.34 1746.68 2477.74 1398.85 2453.04 1398.85 2374.11 1746.68"/><path class="cls-19" d="M2645.72,1210.2l-124.54,21.49s-165.51,1.52-241.16,15.61c-68.83,12.82-79,91,0,198.72,44.86,61.17,82.79,110,160.35,165,19.73-14.49,27.28-20,32.73-54.82-5.61-7.7-20.14-55.87-24.65-65.3-42.91-89.68-100.17-122.3-101-131.12,9.62-15.62,254.69,81.44,303.41,24.34C2697.42,1329.6,2645.72,1210.2,2645.72,1210.2Z"/><path class="cls-5" d="M2650.89,928.23c-32.8-4.6-66.2,1.64-97.45,24.25-27.3,27.83-58.19,73.73-56.3,149.44,2.4,96.14-14.88,102.32,3.15,128.76,75.19,31,203.78,164.45,173.5,21.43-21.93-103.56,48.09-180.75-8.39-295.62C2660.8,947.14,2655.05,938.08,2650.89,928.23Z"/><path class="cls-11" d="M2497.12,1138.1c-1.46,50.12-8.54,64.89-3.13,80.6,30.65,3.13,86.72,15.4,100.73,35,16,22.43,32.06,25.63,24.58,9.08s-27.25-40.07,3.2-120.73,44.87-135.14,15-191.23Z"/><path class="cls-8" d="M2650.89,928.23c-20.19-47.81-25.15-101.53-25.15-101.53l-52.89,15.62s30.05,67.3,1.21,91.34a274.27,274.27,0,0,0-20.62,18.82C2584.69,929.87,2618.09,923.63,2650.89,928.23Z"/><path class="cls-9" d="M2627.33,839.43c-3.13-2.79-7-6.27-11.17-9.91L2573,842.27l-.09.23c1,2.39,12,28,13.47,52.68,12.85-7.8,26.93-20.51,43-42.72C2628.56,847.53,2627.87,843.13,2627.33,839.43Z"/><path class="cls-8" d="M2613.72,943.27c-54.47,19.05-48.43,76.43-98.55,161-26,43.79-50,43.14-50,43.14a1159.74,1159.74,0,0,1-134.42-8.51c-46.08-5.63-49,8.08-17,19.54,64.63,23.11,131.71,48,185.79,42s146.59-144,151.35-179.92C2657.49,970.87,2641.15,933.68,2613.72,943.27Z"/><path class="cls-17" d="M2585.67,1424.73c-3.39,0-6.85,0-10.41-.13-44.39-1.1-74.61-7.24-98.88-12.17-28.35-5.76-44-8.94-62.14-.25a14,14,0,0,1-12.07-25.27c26.63-12.72,48.93-8.19,79.78-1.92,23.2,4.71,52.08,10.58,94,11.62,46.92,1.17,75.52-5.79,90-21.87,12.92-14.33,16.7-38.4,11.9-75.76-1.64-12.78-3.29-23.41-4.74-32.8-4.09-26.46-6.8-44-3.45-71,3.11-25.1,11.42-58.54,30.68-123.37a14,14,0,1,1,26.84,8c-35.88,120.81-34.06,132.58-26.4,182.1,1.48,9.55,3.15,20.37,4.84,33.51,5.92,46.07-.07,77.23-18.87,98.08C2667.41,1415,2636,1424.73,2585.67,1424.73Z"/><path class="cls-11" d="M2088,1675.81c-57.42,28.08-88.33,44.17-106.74,42.64-4.34-.36-7.94-.81-11-1.28-20.48,12.1-53.17,26.41-16.39,29.13,43.27,3.2,64.1-14.42,91.34-22.44s60.9-12.82,48.08-33.65A43.61,43.61,0,0,1,2088,1675.81Z"/><path class="cls-11" d="M2527.44,1625.84c-1.41,45.46-7.66,90.51-35.46,99a46.66,46.66,0,0,1-20,1.78c-4.38,5.41-9.71,5.47-16.88,13.43-10.81,12,61.3,3.61,69.71,0s12-74.51,21-92.54C2553.22,1632.72,2538.32,1629.26,2527.44,1625.84Z"/><path class="cls-19" d="M2306.26,1195.6H2123.85a14,14,0,0,1-12.7-8.1l-73.71-158.65a14,14,0,1,1,25.39-11.8l70,150.55h173.48a14,14,0,0,1,0,28Z"/><path class="cls-8" d="M2344.43,1140.54c-36.86-.54-73.42-22.51-91.58-19.3s-77.45,44.34-70,45.94,54.48-22.76,56.08-23.13,11.76,16.87,36.86,23.2.18-18.81,78,4.69C2404.43,1187.22,2344.43,1140.54,2344.43,1140.54Z"/><path class="cls-20" d="M2645.47,884.6l5.42,43.63s-47.69,2.84-71.43,16.2-58.76,51.93-58.76,51.93l28.62-49.26,4.12-31.52Z"/><path class="cls-20" d="M2625.17,938c-35.42-6.64-51.81,25.1-74.78,76.92s-62.18,114.74-70,122.86-131.41,0-131.41,0-3.74,35.79,0,40.06,25.11,3.74,25.11,3.74,8.55,6.83,16.56,12.23,75.85,15.55,107.37,14,60.36-4.28,64.63-9.09,90.28-137.28,95.62-184.82S2643.25,941.4,2625.17,938Z"/><path class="cls-21" d="M2520.7,720.07c-67,3.21-56.49,104-56.49,104s17.4,5.38,53.86-.63c-2.8-10.82-1.6-38.47-1.6-38.47s4.23,22.44,9.61,36.06c7.71,3.54,16.43.4,31.25-3.18,7.62,32,29.13,45.56,43.85,50.19,16.28,5.11,33.5,11.22,52.73,1.6s8.66-107.9-1.56-127.67c-15.32-29.67-40.8-56.22-84.87-42.2C2545.38,706.81,2520.7,720.07,2520.7,720.07Z"/><path class="cls-21" d="M2637.22,839.78l27.39,40s-30.36,75.85,57.94,110.22c69.15,26.92,61,74.34,29.76,122s18.69,89.34,18.69,89.34,7.62-52.83,74.81-62.81c91.61-13.59,117.55-136.59,49.12-198.09-56.62-50.89-73.85-8.74-112.17-54.41s-110.69-14.83-110.69-14.83l-26.52-38.67Z"/><path class="cls-21" d="M2926.45,1064.38a2.35,2.35,0,0,1-1.17-.3,2.43,2.43,0,0,1-1-3.3c23-42.1,4.24-93.1-5.21-106.92-1-1.46-2-3-3-4.52-9.29-14.5-20.85-32.54-82.54-43.65-14.85-2.67-26.88-11.5-39.61-20.85-26.31-19.31-56.12-41.2-120.9-11.38a2.44,2.44,0,0,1-2-4.43c67.38-31,98.43-8.22,125.82,11.88,12.27,9,23.85,17.51,37.6,20,63.77,11.48,76,30.52,85.77,45.81,1,1.54,1.92,3,2.88,4.4,9.9,14.47,29.59,67.91,5.47,112A2.46,2.46,0,0,1,2926.45,1064.38Z"/><path class="cls-21" d="M2622.59,880.78a95.73,95.73,0,0,1-14.23-1.15c-23.44-3.51-54.89-16.83-57.35-91.64a2.44,2.44,0,0,1,4.87-.16c1,30.84,7.13,53.65,18.18,67.81,8.39,10.76,19.52,16.85,35,19.17,21.7,3.25,36.08-.75,42.74-11.9a2.44,2.44,0,0,1,4.18,2.5C2649.89,875.63,2638.68,880.78,2622.59,880.78Z"/><polygon class="cls-17" points="1711.33 1746.68 1729.34 1746.68 1799.36 1211.38 1759.76 1211.38 1711.33 1746.68"/><polygon class="cls-17" points="2322.18 1746.68 2304.18 1746.68 2234.15 1211.38 2273.76 1211.38 2322.18 1746.68"/><path class="cls-22" d="M3028.14,1294.84c31.14,28.43,17.6,56.87-5.42,109.68s-27.08,247.81-27.08,247.81l19-2.71s-2.71-200.41,23-254.58,36.56-81.24,59.58-63.64S3028.14,1294.84,3028.14,1294.84Z"/><path class="cls-23" d="M3011,1258c3.78-16.85,26.24-35.09,56.28-50.56-4.47,24.86-18.79,65.5-4,73.84,20,11.24,1.95-45.5,9.66-76.69a371,371,0,0,1,93.38-30.63l-.12.34c-17.61,44.69-40.63,62.29-31.15,69.06,7.13,5.09,30.36-46.53,61-73,23-1.22,42.5,1.9,54,11,17.81,14.1,29.76,26.61,11.85,69.54-10.23,7.31-23.49,12.56-38.89,14.1-40.62,4.06-59.58,5.41-31.14,19,13.92,6.63,37.26-.37,56.19-4.64-6.14,11.32-13.69,24.12-22.86,38.7a143.17,143.17,0,0,1-19,24.22c-13.09,2.51-24.51,2.54-30.55,0-19-8.12-67.71-33.85-79.9-23-11.92,10.6,90.29,17.32,83.2,44.26-49.54,28.55-106.23,15-116.25-11.24C3049.33,1317,2999.64,1308.75,3011,1258Z"/><path class="cls-22" d="M3113.45,1450.56c-54.17-40.62-109.69-2.71-138.12,40.63S2967.2,1632,2967.2,1632s10.83,0,10.83-4.07-29.79-115.1,40.63-165.2c44.05-31.34,75.83-16.25,79.89-1.35s-17.6,42-17.6,42Z"/><path class="cls-23" d="M2988.87,1367.06c54.16,0,71.77,84,56.87,132.7s-35.21,139.48-35.21,139.48L2997,1625.7s51.46-127.29,39.27-184.17-42-66.35-47.39-66.35S2988.87,1367.06,2988.87,1367.06Z"/><path class="cls-22" d="M3034.3,1500.14a39.14,39.14,0,0,1,14.25-12,105.18,105.18,0,0,1-2.81,11.6c-6.79,22.21-14.7,53.14-21.3,80.22-.6-3.47-1.52-8.81-3-17.06-.34-2-.6-4.06-.79-6.3A524.42,524.42,0,0,0,3034.3,1500.14Z"/><path class="cls-23" d="M3049.11,1500.55c102.91-43.34,48.69-102.8,139.42-63.53,6.39,2.77,14.18,9.74,22,19.36a67.57,67.57,0,0,1-28.74,2.31c-27.09-4.07-17.61,17.6,27.08,23a99.66,99.66,0,0,1,20.94,4.42c21.29,40.88,30.88,94.69-14.17,113.39-8.88,3.68-19.85,5.79-32.06,6.58-13.91-11,3.39-75-18-66.17-20.58,8.48,6.44,54.82,2.74,66.49-20.31-.37-42.8-3.69-64.29-9-8.5-4.77-15-11.16-17-19.56-6.77-28.44,37.91-46,39.27-70.41,1.24-22.41-16.38,49.29-63.07,59.85C3021,1547.57,3001,1520.8,3049.11,1500.55Z"/><path class="cls-23" d="M2975.78,1423.93c10.83-23-17.61-28.44-16.25-10.83,1.2,15.6,1.33,53.51-14.67,63.84-27.59-3-65.13-14.11-93.5-31.06a11.42,11.42,0,0,1,1.19-7.05c12.19-24.38,90.73-44.69,66.35-52.82-19.41-6.47-53.43,31.73-80.84,51-16.46-12.49-27.49-27.38-27.49-44,0-22.49,27.34-48,62.69-60.13,15.91,1.6,30.68,10.3,53.77,23.38,34.1,19.33,26.21-11.91-6-30.46,27.83,1.44,55.58,13.34,76.05,41.75,0,0-1.94,12.14,10.91,30.92,35.07,51.25-5.4,81.16-53.77,79.22C2956.93,1464.14,2968.29,1439.84,2975.78,1423.93Z"/><path class="cls-22" d="M3110.19,1448.27c26.48,20.46,55.9,44.38,92,60.63s28.89,69.22,28.89,69.22,5.42-45.74-24.68-61.39-49.95-34.31-72.82-37.92-35.51-7.22-35.51-7.22,7.22-14.45,3-19.86S3110.19,1448.27,3110.19,1448.27Z"/><path class="cls-22" d="M3240.72,1208c-96.9,25.88-167.92,87.87-181.16,102.92s-13.24,19.26-13.24,19.26l10.23,19.26,4.81-2.41s-7.82-16.25,12.64-37.31c35.29-36.33,78.24-65,107.74-77.64S3240.72,1208,3240.72,1208Z"/><path class="cls-19" d="M2973.24,1611.61h37a47.67,47.67,0,0,1,47.67,47.67v85.06a0,0,0,0,1,0,0H2925.57a0,0,0,0,1,0,0v-85.06A47.67,47.67,0,0,1,2973.24,1611.61Z" transform="translate(5983.5 3355.95) rotate(180)"/><rect class="cls-3" x="2925.57" y="1626.82" width="132.35" height="9.32"/><rect class="cls-3" x="2925.57" y="1643.8" width="132.35" height="5.48"/><rect class="cls-2" x="546.8" y="1578.38" width="55.73" height="50.16" rx="12.08" transform="translate(1149.34 3206.92) rotate(180)"/><rect class="cls-2" x="445.47" y="1578.38" width="55.73" height="50.16" rx="12.08" transform="translate(946.68 3206.92) rotate(180)"/><rect class="cls-2" x="344.15" y="1578.38" width="55.73" height="50.16" rx="12.08" transform="translate(744.02 3206.92) rotate(180)"/><path class="cls-2" d="M3199.05,653h31.58A12.08,12.08,0,0,1,3242.71,665v26a12.08,12.08,0,0,1-12.08,12.08h-31.58A12.08,12.08,0,0,1,3187,691V665A12.07,12.07,0,0,1,3199.05,653Z" transform="translate(3892.88 -2536.81) rotate(90)"/><path class="cls-2" d="M3199.05,754.29h31.58a12.08,12.08,0,0,1,12.08,12.08v26a12.08,12.08,0,0,1-12.08,12.08h-31.58A12.08,12.08,0,0,1,3187,792.37v-26A12.07,12.07,0,0,1,3199.05,754.29Z" transform="translate(3994.21 -2435.48) rotate(90)"/><path class="cls-2" d="M3199.05,855.62h31.58a12.07,12.07,0,0,1,12.07,12.07v26a12.08,12.08,0,0,1-12.08,12.08h-31.58A12.07,12.07,0,0,1,3187,893.7v-26A12.07,12.07,0,0,1,3199.05,855.62Z" transform="translate(4095.54 -2334.15) rotate(90)"/></svg>