<svg id="Layer_2" data-name="Layer 2" xmlns="http://www.w3.org/2000/svg" viewBox="0 0 758.3 225.19"><defs><style>.cls-1{fill:#e05e9a;}.cls-2{fill:#029ea4;}.cls-3{fill:#df418f;}.cls-4{fill:#00abaa;}.cls-5{fill:#784d9d;}.cls-6{fill:#de428f;}.cls-7{fill:#03919a;}.cls-8,.cls-9{fill:#d61b88;}.cls-9{font-size:127.19px;font-family:ArialRoundedMTBold, Arial Rounded MT Bold;letter-spacing:-0.05em;}</style></defs><path class="cls-1" d="M71.89,101.41l42.78-35.6-29-24.17c-2.05-1.62-3.67-2.91-5-4a23.1,23.1,0,0,0-2.51-1.79A12.27,12.27,0,0,0,76,34.77a11.21,11.21,0,0,0-2.24-.6A12.2,12.2,0,0,0,71.89,34Z"/><path class="cls-2" d="M157.45,101.41l42.78-35.6-29-24.17c-2.05-1.62-3.67-2.91-5-4a23.1,23.1,0,0,0-2.51-1.79,12.27,12.27,0,0,0-2.09-1.07,11.21,11.21,0,0,0-2.24-.6,12.2,12.2,0,0,0-1.91-.16Z"/><path class="cls-3" d="M71.89,101.41,29.11,65.81l29-24.17c2-1.62,3.67-2.91,5-4a23.1,23.1,0,0,1,2.51-1.79,12.27,12.27,0,0,1,2.09-1.07,11.21,11.21,0,0,1,2.24-.6A12.2,12.2,0,0,1,71.89,34Z"/><path class="cls-4" d="M157.45,101.41l-42.78-35.6,29-24.17c2.05-1.62,3.67-2.91,5-4a23.1,23.1,0,0,1,2.51-1.79,12.27,12.27,0,0,1,2.09-1.07,11.21,11.21,0,0,1,2.24-.6,12.2,12.2,0,0,1,1.91-.16Z"/><path class="cls-5" d="M157.46,172.22l-29.09,24.09c-2.06,1.6-3.7,2.88-5.05,4a20.76,20.76,0,0,1-2.52,1.77,15.22,15.22,0,0,1-2.06,1.11,11.52,11.52,0,0,1-2.27.56,9.49,9.49,0,0,1-1.89.18c-.53,0-1.17-.07-1.91-.18a10.64,10.64,0,0,1-4.34-1.7,18.85,18.85,0,0,1-2.48-1.78c-1.35-1.1-2.95-2.41-5-4.05C91.17,188.14,81.55,180,71.89,172l42.87-35.49Z"/><polygon class="cls-6" points="71.89 100.96 114.67 136.64 71.89 172.01 71.89 100.96"/><polygon class="cls-2" points="157.45 100.96 114.67 136.64 157.45 172.01 157.45 100.96"/><polygon class="cls-7" points="157.54 172.01 200.14 136.51 200.13 65.43 157.54 100.96 157.54 172.01"/><polygon class="cls-8" points="71.8 172.01 29.2 136.51 29.21 65.43 71.8 100.96 71.8 172.01"/><path class="cls-7" d="M422.63,54.33l.06,20.49a36.8,36.8,0,0,0-16.22-.91c-14.31,1.81-14.94,15.71-14.94,15.71v38.94c.4,16.07,13.21,18,13.21,18l34.74.12V54.33Zm-6.93,80.19c-7.69.12-7.52-4.73-7.52-4.73V91.22s-.4-5.69,7.52-5.3,7.09,4.91,7.09,4.91l0,38.69S423.4,134.4,415.7,134.52Z"/><polygon class="cls-7" points="222.37 54.38 261.93 54.38 261.93 67.99 240.03 67.99 239.96 95.34 261.93 95.34 261.93 108.97 239.96 108.97 239.83 146.62 222.37 146.62 222.37 54.38"/><path class="cls-7" d="M319.22,144.45A35,35,0,0,1,309,171.8c-12.18,11.89-34.05,11.32-34.05,11.32l.3-15.56s27.53,2.11,27.33-20.94h-8.1s-9,.63-16.92-3.65c0,0-6.72-3.55-6.42-12.6V73.88h16.65v55.73s.21,4.79,4.69,4.73h4.85s4.88-.18,5.08-4.15V73.88h16.82Z"/><path class="cls-7" d="M380.82,95.07l.07,51.46H364.07l-.34-56.28s-.36-3.16-5.92-4.09a13,13,0,0,0-7.69,1.09s-2.87.51-2.71,6.22l-.3,53.06H330.39V73.88h29.53S382.53,73.34,380.82,95.07Z"/><text class="cls-9" transform="translate(458.39 146.68)">Jobs</text></svg>