<svg id="OBJECTS" xmlns="http://www.w3.org/2000/svg" xmlns:xlink="http://www.w3.org/1999/xlink" viewBox="0 0 750 500"><defs><style>.cls-1{fill:#fcf;}.cls-1,.cls-10,.cls-11,.cls-12,.cls-13,.cls-14,.cls-15,.cls-16,.cls-18,.cls-2,.cls-21,.cls-22,.cls-23,.cls-24,.cls-25,.cls-26,.cls-27,.cls-28,.cls-29,.cls-3,.cls-32,.cls-33,.cls-34,.cls-35,.cls-36,.cls-4,.cls-41,.cls-42,.cls-44,.cls-45,.cls-6,.cls-7,.cls-8,.cls-9{fill-rule:evenodd;}.cls-2{fill:#b4c5e6;}.cls-3,.cls-30,.cls-38{fill:#fff;}.cls-4{fill:#9fb2d9;}.cls-29,.cls-5{fill:#c000ff;}.cls-6{fill:url(#GradientFill_1);}.cls-7{fill:#101537;}.cls-8{fill:#00000f;}.cls-9{fill:#b32720;}.cls-10{fill:#d64c47;}.cls-11,.cls-37{fill:#3b405f;}.cls-12{fill:#674834;}.cls-13,.cls-19{fill:#b56b41;}.cls-14,.cls-20{fill:#d58750;}.cls-15{fill:#ea5756;}.cls-16{fill:#db4141;}.cls-17{fill:#fffaf9;}.cls-18{fill:#131936;}.cls-21{fill:#050a25;}.cls-22{fill:#f5ac83;}.cls-23{fill:#f2d8cd;}.cls-24,.cls-43{fill:#dcdcee;}.cls-25,.cls-39{fill:#b5b6d3;}.cls-26{fill:#d0d0e6;}.cls-27{fill:#9295bc;}.cls-28{fill:#c0cdea;}.cls-30{font-size:23.92px;font-family:OpenSans-Bold, OpenSans Bold;font-weight:700;}.cls-31{letter-spacing:0.04em;}.cls-32{fill:#294d3c;}.cls-33{fill:#4a9075;}.cls-34{fill:#1b7154;}.cls-35{fill:#a6c86b;}.cls-36{fill:#5f9850;}.cls-40{fill:#151d3d;}.cls-41{fill:#33385c;}.cls-42{fill:#484e78;}.cls-44{fill:#cdcde2;}.cls-45{fill:#ededf6;}</style><linearGradient id="GradientFill_1" x1="249.8" y1="190.24" x2="228.68" y2="178.78" gradientUnits="userSpaceOnUse"><stop offset="0" stop-color="#e1e8f6"/><stop offset="1" stop-color="#fff"/></linearGradient></defs><path class="cls-1" d="M589.09,334.7h56.74a55.68,55.68,0,0,1,55.52,55.52h0a55.69,55.69,0,0,1-55.52,55.53H166.07c-49.45,0-89.91-40.46-89.91-89.91h0c0-49.45,40.46-89.91,89.91-89.91h0a38.12,38.12,0,0,0,38-38h0a38.12,38.12,0,0,0-38-38H120.32a39.65,39.65,0,0,1-39.53-39.52h0a39.65,39.65,0,0,1,39.53-39.53h57.85a15.43,15.43,0,0,0,15.39-15.38h0a15.43,15.43,0,0,0-15.39-15.39H168a10.65,10.65,0,0,1-10.62-10.62h0A10.65,10.65,0,0,1,168,58.85h66.92c14.09,0,15.66,16.65,51.26,16.65H368.7a13.9,13.9,0,0,1,13.86,13.86h0a13.9,13.9,0,0,1-13.86,13.85H355.39a20.14,20.14,0,0,0-20.07,20.08h0a20.14,20.14,0,0,0,20.07,20.08h40.05c54.08,0,61.72,14.13,71.19,42.24S525.29,216,525.29,216h67.27a30.34,30.34,0,0,1,30.25,30.25h0a30.34,30.34,0,0,1-30.25,30.26h-3.47A29.19,29.19,0,0,0,560,305.6h0a29.19,29.19,0,0,0,29.1,29.1ZM138.17,80.09a10.62,10.62,0,1,0-10.62-10.62A10.61,10.61,0,0,0,138.17,80.09Z"/><path class="cls-2" d="M537.78,446.33c5.75-8.34,17.8-22.2,40.83-36,36.44-21.83,64-50.77,51.92-67.89-11.91-16.8-65.28,15.65-109.59,96.77A96.21,96.21,0,0,0,537.78,446.33Z"/><path class="cls-3" d="M530.66,438.92a22.36,22.36,0,0,1,7.19,1,.46.46,0,0,0,.57-.31.45.45,0,0,0-.31-.57,24,24,0,0,0-6.9-1c.79-1.33,1.57-2.65,2.36-4,1.61,0,6.8-.14,8.75,0a.47.47,0,0,0,.49-.44.47.47,0,0,0-.44-.49c-1.79-.1-6.19,0-8.23,0q2.22-3.63,4.43-7.06a107.13,107.13,0,0,1,11.73.88.46.46,0,1,0,.12-.91,109.73,109.73,0,0,0-11.26-.89c1.49-2.3,3-4.53,4.47-6.7a152.44,152.44,0,0,1,16.75,1.27.47.47,0,0,0,.52-.4.46.46,0,0,0-.4-.52,152.45,152.45,0,0,0-16.23-1.26q2.94-4.26,5.86-8.18c2.23-.09,11.48-.33,18.43,1.9a.46.46,0,0,0,.58-.3.46.46,0,0,0-.3-.58c-6.47-2.08-14.87-2.06-18-2q3.58-4.78,7.12-9.09c3,.17,15.29,1.1,21,5.15a.46.46,0,1,0,.53-.75c-5.56-3.94-16.87-5-20.82-5.29q3.75-4.54,7.42-8.57A96.67,96.67,0,0,1,586.35,397a.45.45,0,0,0,.62-.2.47.47,0,0,0-.2-.62,96.55,96.55,0,0,0-20-7.11c1.44-1.58,2.88-3.1,4.29-4.57a104.62,104.62,0,0,1,23.17,8.31.47.47,0,1,0,.4-.84,107.72,107.72,0,0,0-22.8-8.25q5.05-5.16,9.83-9.41c2.69.89,16.3,5.5,23.46,10.06a.47.47,0,0,0,.64-.15.45.45,0,0,0-.14-.63c-6.88-4.38-19.55-8.78-23.16-10,1.85-1.63,3.67-3.17,5.44-4.61A135.92,135.92,0,0,1,610.42,379a.47.47,0,0,0,.64-.16.48.48,0,0,0-.17-.64,136.79,136.79,0,0,0-22.1-10c4.14-3.34,8.05-6.16,11.65-8.54,2.28.54,12.56,3.11,20.28,7.59a.46.46,0,0,0,.64-.17.47.47,0,0,0-.17-.63c-7.1-4.12-16.31-6.64-19.69-7.48,1.49-1,2.93-1.86,4.3-2.67a71.77,71.77,0,0,1,17.52,4.46.47.47,0,1,0,.33-.87,75.46,75.46,0,0,0-16.53-4.36c11.09-6.41,18-8,18-8.05a.69.69,0,0,0,.51-.84.71.71,0,0,0-.85-.51,54.09,54.09,0,0,0-8.32,3.06,41.44,41.44,0,0,1,4-4.66.47.47,0,0,0,.16-.64.48.48,0,0,0-.64-.15c-.84.51-4.22,4.8-5.38,6.29-2.13,1-4.56,2.23-7.25,3.75l4.57-9.08a.46.46,0,1,0-.82-.42L606,354.69q-2.78,1.62-5.86,3.63L605,347.55a.46.46,0,0,0-.22-.61.46.46,0,0,0-.62.23l-5.55,12.13c-3.07,2.06-6.34,4.44-9.8,7.18l4.28-11.16a.47.47,0,0,0-.27-.6.46.46,0,0,0-.6.26l-4.84,12.65c-1.57,1.28-3.18,2.62-4.82,4.05l3.63-10.06a.47.47,0,0,0-.88-.32l-4.19,11.64q-4.54,4.05-9.37,8.9l2.72-9.82a.46.46,0,0,0-.32-.57.47.47,0,0,0-.57.32l-3.17,11.43c-1.27,1.31-2.56,2.67-3.85,4.07l1.52-7.5a.47.47,0,0,0-.36-.55.46.46,0,0,0-.54.37l-1.84,9C563,391.23,560.51,394,558,397l1.43-8.36a.46.46,0,1,0-.91-.16l-1.69,9.94c-2.16,2.64-4.35,5.41-6.54,8.32l.93-7.43a.48.48,0,0,0-.4-.52.46.46,0,0,0-.52.41l-1.13,9q-2.88,3.86-5.77,8l0-6.71a.48.48,0,0,0-.46-.47.47.47,0,0,0-.47.46l-.06,8.06q-2.09,3.06-4.19,6.28l-.72-5.72a.46.46,0,1,0-.92.12l.86,6.8q-1.93,3-3.87,6.13l-.67-3.69a.47.47,0,0,0-.92.17l.86,4.71c-1,1.57-1.92,3.18-2.89,4.81l-1.53-3a.45.45,0,0,0-.62-.2.47.47,0,0,0-.2.62l1.8,3.56q-1.18,2-2.35,4.07l1.27.58Q529.54,440.84,530.66,438.92Z"/><path class="cls-4" d="M531.17,451.05c6.16-3.89,17-9.11,33.43-11.45,27.85-4,52.7-15.38,50.82-30.6-1.81-14.66-41.29-9-90.41,30.77L531.15,451Z"/><path class="cls-2" d="M607.9,411.27a1,1,0,0,0,0-1.91,67.49,67.49,0,0,0-8.44.71L604,407a.64.64,0,0,0,.17-.88.63.63,0,0,0-.88-.17l-6.76,4.56c-2.46.4-5.28.95-8.38,1.69l4.78-4.56a.64.64,0,0,0-.88-.92l-6.4,6.11c-3.22.84-6.7,1.88-10.39,3.18l4-4.11a.64.64,0,1,0-.91-.89l-5.83,6c-3.86,1.45-7.93,3.17-12.13,5.23l3.38-4.34a.64.64,0,0,0-1-.79l-5,6.45c-3.94,2-8,4.34-12.11,7L547,427.6a.64.64,0,0,0-1.16-.54l-2.26,4.82c-3.12,2.08-6.27,4.34-9.43,6.82l1.27-3a.63.63,0,0,0-.34-.83.64.64,0,0,0-.84.33l-2.18,5.17q-2.3,1.88-4.61,3.9l.94,1.72q2.31-2,4.61-3.92c1.58.1,5.35.42,6.94,1.25a.63.63,0,0,0,.86-.26.64.64,0,0,0-.27-.86,19.72,19.72,0,0,0-6.08-1.29c1.21-1,2.43-1.91,3.64-2.82a26.83,26.83,0,0,1,7.87,2.44.65.65,0,0,0,.87-.24.64.64,0,0,0-.24-.87,25.6,25.6,0,0,0-7.1-2.36c2.5-1.84,5-3.53,7.46-5.11,2.12.88,8.83,3.73,11.46,5.89a.64.64,0,0,0,.9-.08.65.65,0,0,0-.09-.9c-2.47-2-8.22-4.59-11-5.74,2.64-1.65,5.26-3.17,7.83-4.56,2.12.81,9,3.61,13.55,7.21a.65.65,0,0,0,.9-.1.64.64,0,0,0-.11-.9c-4.09-3.24-10-5.84-12.87-7,1.28-.67,2.54-1.31,3.79-1.92a61.68,61.68,0,0,1,16.51,8.27.65.65,0,0,0,.89-.14.63.63,0,0,0-.14-.89,63,63,0,0,0-15.61-8,137.08,137.08,0,0,1,13-5.31c2.44,1.5,11.85,7.42,16,11.33a.63.63,0,0,0,.9,0,.64.64,0,0,0,0-.9c-3.82-3.62-12-8.86-15.29-10.95,3.06-1,6-1.88,8.67-2.58,2.19,1.67,10.26,7.84,12.13,9.46a.63.63,0,0,0,.89-.06.64.64,0,0,0-.06-.9c-1.71-1.48-8.47-6.67-11.39-8.9,3.55-.87,6.73-1.49,9.46-1.93,2,1.71,6.68,5.83,7.79,6.93a.63.63,0,0,0,.9,0,.65.65,0,0,0,0-.9c-1-1-4.8-4.32-7-6.27A68.41,68.41,0,0,1,607.9,411.27Z"/><path class="cls-4" d="M439.89,366.2c-.41-5.55-.59-10.93-.57-16.16s.25-10.42.69-15.35c1.65-18.44,6.13-34.35,12.8-47.94a108.75,108.75,0,0,1,28.58-36.24,124.09,124.09,0,0,1,36-20.42,162,162,0,0,1,44.34-9.32q7.72-.57,15.55-.49c5.27,0,10.52.31,15.74.77h0a2.16,2.16,0,0,1,2,2.33l0,.15c-.21,2-4.9,45.59-26.13,85-21.47,39.82-59.78,75.36-127.31,59.7a2.11,2.11,0,0,1-1.18-.73,2.21,2.21,0,0,1-.48-1.25ZM592.64,224.46a227.83,227.83,0,0,0-27.48,13.43c5.68,1,18.56,3.41,24.34,5.25,1.92-9.25,2.82-16,3.14-18.68Zm-3.57,20.71h0c-6.68-2.18-24.1-5.22-26.7-5.66-7.25,4.19-15.41,9.33-24.08,15.48l45.2,11.89c2.41-7.95,4.24-15.35,5.6-21.7Zm-6.21,23.67-46.77-12.3A310.19,310.19,0,0,0,511,276.71c9.27,2.82,53.62,16.42,61.13,20.22a230.21,230.21,0,0,0,10.73-28.09Zm-11.6,30c-7.56-3.87-56.51-18.79-62.05-20.48-6.83,6.21-13.71,13-20.47,20.46L558.41,321a.86.86,0,0,1,.24.11c3-4.45,5.74-9,8.24-13.69q2.33-4.31,4.37-8.64Zm-13.81,24.08-70.23-22.42c-5.25,5.88-10.43,12.15-15.45,18.82,11.35,3.84,69.49,21.92,69.67,22a.91.91,0,0,1,.41.25,128.08,128.08,0,0,0,15.6-18.63ZM540.25,343c-6.16-1.91-60.58-18.86-69.77-22Q464,329.72,458,339.34c13.74,6.79,59.92,18.77,60,18.81a1,1,0,0,1,.63.48A100.25,100.25,0,0,0,540.25,343Zm-23.93,16.8c-7.4-1.95-46.91-12.48-59.42-18.73q-3.84,6.25-7.45,12.89c5.27,2.08,28.89,11.14,44.15,12.71a1,1,0,0,1,.89.74,93,93,0,0,0,21.83-7.61ZM490,368.3c-15.63-2.44-37-10.71-41.51-12.49-1.81,3.41-3.58,6.89-5.28,10.45,17.54,3.93,33.07,4.33,46.79,2ZM442,364q2.37-4.89,4.89-9.58c-2.11-5.84-3.67-16-4.44-21.65-.07.7-.13,1.4-.2,2.1q-.64,7.31-.68,15.16,0,6.75.43,14Zm1.09-36.53a1,1,0,0,1,.89.9c0,.05,1.65,14.92,4.26,23.57q3.48-6.36,7.18-12.35a201.77,201.77,0,0,1-6.81-36.53,137.75,137.75,0,0,0-5.52,24.41Zm6.7-27.84a1,1,0,0,1,.69.9,197.76,197.76,0,0,0,6.41,36.7Q462.71,328,469,319.59c-1.21-3.58-8.25-24.93-9.23-40.8-1.75,2.86-3.39,5.83-4.91,8.94a114.16,114.16,0,0,0-5.05,11.91Zm11.46-23.24a1.06,1.06,0,0,1,.49.83c.55,14.36,6.74,34.24,8.74,40.36,5-6.56,10.06-12.72,15.24-18.51-9.26-19.62-10.65-35.59-10.86-39.57a106,106,0,0,0-13.61,16.89Zm15.33-18.59a1,1,0,0,1,.3.7c0,.05.19,17,10.33,38.91,6.78-7.47,13.68-14.3,20.54-20.52-4.16-9.35-8.17-32.64-8.7-35.82a114.34,114.34,0,0,0-16.22,11.15c-2.15,1.78-4.23,3.63-6.25,5.58Zm24.32-17.76a1.18,1.18,0,0,1,.12.33c0,.08,4.09,24.88,8.34,35.06A314.92,314.92,0,0,1,534.75,255c-3-12-2.93-25-2.9-27.07q-7,1.82-13.66,4.28a128.66,128.66,0,0,0-17.31,7.86Zm33-12.66a.8.8,0,0,1,0,.27,115.91,115.91,0,0,0,2.64,26c8.83-6.3,17.14-11.54,24.53-15.82a74.76,74.76,0,0,1-.29-14.79,167.87,167.87,0,0,0-26.91,4.31Zm29-4.46a.43.43,0,0,1,0,.16,73.53,73.53,0,0,0,.16,13.66,241.2,241.2,0,0,1,27.54-13.67q-6.6-.51-13.26-.57Q570.11,222.44,562.85,222.93Z"/><rect class="cls-5" x="118.88" y="446.43" width="574.46" height="7.82" rx="3.91"/><rect class="cls-5" x="97.49" y="446.43" width="15.8" height="7.82" rx="3.91"/><rect class="cls-5" x="706.2" y="446.43" width="31.45" height="7.82" rx="3.91"/><polygon class="cls-6" points="218.11 186.08 233.49 226.93 268.17 203.25 277.95 165.82 273.21 157.42 234.07 161.16 221.7 171.06 218.11 186.08"/><path class="cls-3" d="M226,179a5.17,5.17,0,1,0-5.18-5.17A5.18,5.18,0,0,0,226,179Z"/><path class="cls-7" d="M177.52,193.59l29.59-33.72a.54.54,0,0,1,.75-.05l1.76,1.55a.53.53,0,0,1,0,.75l-29.59,33.72a.54.54,0,0,1-.75,0l-1.76-1.55a.53.53,0,0,1,0-.75Zm30-32.61-28.89,32.91,1,.84,28.89-32.91Z"/><path class="cls-8" d="M207.24,158.92a3,3,0,1,1-2.58,3.34A3,3,0,0,1,207.24,158.92Z"/><path class="cls-7" d="M177.5,193.75l20.8,39.74a.53.53,0,0,0,.72.23l2.08-1.09a.54.54,0,0,0,.23-.72l-20.81-39.74a.54.54,0,0,0-.72-.23L177.73,193a.53.53,0,0,0-.23.72ZM199,232.52l-20.31-38.79,1.13-.59,20.31,38.79Z"/><path class="cls-8" d="M198.21,234.45a3,3,0,1,0-1.72-3.85A3,3,0,0,0,198.21,234.45Z"/><path class="cls-8" d="M179.2,190.88a3,3,0,1,1-2.58,3.33A3,3,0,0,1,179.2,190.88Z"/><path class="cls-9" d="M197.46,242.75h38.26a5.55,5.55,0,0,0,5.54-5.54h0a5.56,5.56,0,0,0-5.54-5.55H197.46a5.56,5.56,0,0,0-5.54,5.55h0A5.55,5.55,0,0,0,197.46,242.75Z"/><path class="cls-10" d="M172,242.75h38.25a5.56,5.56,0,0,0,5.55-5.54h0a5.57,5.57,0,0,0-5.55-5.55H172a5.57,5.57,0,0,0-5.55,5.55h0A5.56,5.56,0,0,0,172,242.75Z"/><path class="cls-10" d="M233.94,161.66l-15.83,24.42a.78.78,0,0,1-1.38-.14l-9.15-23.28a.77.77,0,0,1,.69-1.06l25-1.14a.77.77,0,0,1,.69,1.2Z"/><polygon class="cls-3" points="216.31 184.86 214.97 181.45 228.44 160.68 232.09 160.51 216.31 184.86"/><path class="cls-10" d="M210.15,158.94l6.52,4.23a3.9,3.9,0,0,1,1.14,5.37h0a3.9,3.9,0,0,1-5.37,1.15l-6.52-4.23a3.89,3.89,0,0,1-1.15-5.37h0A3.9,3.9,0,0,1,210.15,158.94Z"/><path class="cls-8" d="M207.09,161.53a1.24,1.24,0,1,1-1.71.37A1.24,1.24,0,0,1,207.09,161.53Z"/><path class="cls-3" d="M245.49,187.48a1.08,1.08,0,0,0-2.16,0V190h-2.54a1.08,1.08,0,0,0,0,2.16h2.54v2.54a1.08,1.08,0,1,0,2.16,0v-2.54H248a1.08,1.08,0,0,0,0-2.16h-2.54Z"/><path class="cls-3" d="M230.38,182.82a1.08,1.08,0,0,0-2.16,0v2.54h-2.54a1.08,1.08,0,1,0,0,2.16h2.54v2.53a1.08,1.08,0,1,0,2.16,0v-2.53h2.54a1.08,1.08,0,1,0,0-2.16h-2.54Z"/><path class="cls-3" d="M266.43,165.86a1.08,1.08,0,1,0-2.16,0v2.54h-2.54a1.08,1.08,0,0,0,0,2.16h2.54v2.54a1.08,1.08,0,1,0,2.16,0v-2.54H269a1.08,1.08,0,1,0,0-2.16h-2.54Z"/><path class="cls-3" d="M246,170.49a.47.47,0,1,0-.94,0v1.11H243.9a.48.48,0,0,0,0,1H245v1.11a.47.47,0,1,0,.94,0v-1.11h1.12a.48.48,0,0,0,0-1H246Z"/><path class="cls-3" d="M235,195.63a.48.48,0,0,0-.48-.47.47.47,0,0,0-.47.47v1.12H233a.47.47,0,0,0-.47.47.48.48,0,0,0,.47.48h1.12v1.11a.47.47,0,0,0,.47.47.48.48,0,0,0,.48-.47V197.7h1.11a.49.49,0,0,0,.48-.48.48.48,0,0,0-.48-.47H235Z"/><path class="cls-3" d="M257.64,183.41a.48.48,0,0,0-.48-.47.47.47,0,0,0-.47.47v1.12h-1.12a.47.47,0,0,0,0,.94h1.12v1.12a.47.47,0,0,0,.47.47.48.48,0,0,0,.48-.47v-1.12h1.11a.47.47,0,1,0,0-.94h-1.11Z"/><path class="cls-3" d="M234.26,173.18a.47.47,0,1,0-.94,0v1.11H232.2a.48.48,0,0,0,0,1h1.12v1.11a.47.47,0,1,0,.94,0v-1.11h1.12a.48.48,0,0,0,0-1h-1.12Z"/><path class="cls-3" d="M255.5,161.87a.48.48,0,0,0-.95,0V163h-1.12a.47.47,0,1,0,0,.94h1.12v1.12a.48.48,0,0,0,.95,0v-1.12h1.11a.47.47,0,1,0,0-.94H255.5Z"/><path class="cls-3" d="M275.05,186.31a.47.47,0,0,0-.47-.47.48.48,0,0,0-.48.47v1.12H273a.47.47,0,0,0-.47.47.48.48,0,0,0,.47.48h1.11v1.11a.48.48,0,0,0,.48.47.47.47,0,0,0,.47-.47v-1.11h1.12a.48.48,0,0,0,.47-.48.47.47,0,0,0-.47-.47h-1.12Z"/><path class="cls-3" d="M248.62,213.81a.47.47,0,0,0-.47-.47.48.48,0,0,0-.48.47v1.12h-1.11a.47.47,0,1,0,0,.94h1.11V217a.48.48,0,0,0,.48.47.47.47,0,0,0,.47-.47v-1.12h1.12a.47.47,0,1,0,0-.94h-1.12Z"/><path class="cls-3" d="M268.17,202.13a.48.48,0,0,0-.95,0v1.12h-1.11a.48.48,0,0,0-.48.47.49.49,0,0,0,.48.48h1.11v1.11a.48.48,0,1,0,.95,0V204.2h1.11a.48.48,0,0,0,.48-.48.47.47,0,0,0-.48-.47h-1.11Z"/><path class="cls-11" d="M522.24,254.76a5.72,5.72,0,0,0-11.41.76c.82,12.1,2.15,25.55,4.09,40.48H411.15c2.05-14.85,3.68-28.22,5-40.25a5.71,5.71,0,1,0-11.36-1.21c-2.56,23.77-6.46,52.75-12.26,88-4.95,30-11.27,64.44-19.31,104h11.65c7.87-38.83,14.07-72.67,18.93-102.11,2.17-13.15,4.07-25.42,5.74-36.89h107q2.49,17.25,6.09,37c5.41,29.47,12.83,63.28,22.85,102h11.8c-10.32-39.63-17.93-74.11-23.42-104.06-2.71-14.75-4.9-28.41-6.65-41a5.72,5.72,0,0,0-.12-.83C524.7,283.46,523.16,268.26,522.24,254.76Z"/><path class="cls-8" d="M285.84,310.51a3,3,0,1,0-6,0V446.45h6V406.23h46.4v40.22h6.05V310.51a3,3,0,1,0-6.05,0V389.1h-46.4V310.51Zm46.4,89.67h-46.4v-7.29h46.4Z"/><path class="cls-12" d="M233.38,310.51a3,3,0,1,0-6,0V446.45h6V406.23h46.41v40.22h6V310.51a3,3,0,1,0-6,0V389.1H233.38V310.51Zm46.41,89.67H233.38v-7.29h46.41Z"/><path class="cls-8" d="M344,310.51H225.49a3.81,3.81,0,0,0-3.8,3.8h0a3.81,3.81,0,0,0,3.8,3.81H344a3.81,3.81,0,0,0,3.8-3.81h0A3.81,3.81,0,0,0,344,310.51Z"/><path class="cls-13" d="M348.26,306.71H220.45a3.82,3.82,0,0,0-3.81,3.8h0a3.83,3.83,0,0,0,3.81,3.81H348.26a3.82,3.82,0,0,0,3.8-3.81h0A3.81,3.81,0,0,0,348.26,306.71Z"/><path class="cls-14" d="M270.8,306.71H220.45a3.82,3.82,0,0,0-3.81,3.8h0a3.83,3.83,0,0,0,3.81,3.81H270.8a3.82,3.82,0,0,0,3.81-3.81h0A3.81,3.81,0,0,0,270.8,306.71Z"/><path class="cls-10" d="M344.78,208c11,2.71,33.14,7.13,40.18,16.17,4.6,5.9,5.24,13.05-2.37,13.05H343.94Z"/><path class="cls-10" d="M266.84,256.57l-14.85,13s-8.57-23.65-.1-44.33,40.63-22.24,53.89-23.49S336,237.21,336,237.21Z"/><path class="cls-8" d="M321.29,273.16s28.22,6.41,31.78,7.25,13.16,10.43,14.85,19.67,17.33,126.51,17.33,126.51-4,7-4.56,7.12-8.18-3.51-8.18-3.51S345.32,330.79,342.18,322s-2.31-15.29-11.92-15.29H301.38l-7.48-25.44,3-2.93c-3.27.16-5.82.18-6.26-.08-1.36-.84-22.81-8.69-22.81-8.69s15.38-4.6,16.74-5.13,23.49-2.35,23.49-2.35.06,6.07,1.16,7.38a7.34,7.34,0,0,0,3.45,1.84h0Z"/><path class="cls-10" d="M253.71,243.42c-.23,8-.49,16.37-1.77,20.74a18.35,18.35,0,0,1,.05,5.41l-.21.58a10,10,0,0,0,.33,1c3.54,2.71,7.29,2.81,11.61,4.44v-.58l-.18-.76,12.59,6.08c4.26-.44,31.36-2.18,38.13-8.72-.6-6.38,26.47-24.25,33.9-26Z"/><path class="cls-15" d="M382,428.54a3.48,3.48,0,0,1,4.13-1.9c2.93.81,20.3,10.37,23,11.55s5.57,5.68,3.43,8.26H371.32c-2.44-1.46-4.79-6.53-2.28-15.33S371,431.56,382,428.54Z"/><path class="cls-16" d="M382,428.54a3.48,3.48,0,0,1,4.13-1.9c1.82.51,9.24,4.4,15.24,7.56-1.76,1.31-5.49,2.46-6.35,2.29C394,436.27,382,428.54,382,428.54Z"/><rect class="cls-17" x="367.43" y="441.76" width="47.07" height="4.67" rx="1.21"/><path class="cls-18" d="M260.53,306.66c-16.22,0-16.87-28.34-8.54-37.09a18.29,18.29,0,0,0,10.86,3.26c11-.12,36.83-6.29,44.72,4.24s10.77,28.18,6.2,53.88-15.85,99.56-15.85,99.56l-13-1.12s1.92-104.2,2.13-109.74-2.72-12.94-8.69-12.94S260.53,306.66,260.53,306.66Z"/><path class="cls-15" d="M295.26,429.32s-4.92-6.12-10.94-1.25a8.91,8.91,0,0,0-4.51,4.43c-1.23,3.09-3.55,4.49-4,7.89s.55,6,4.85,6h7c3.08,0,7.65.52,9.23-3.61s0-7.89.54-10S295.26,429.32,295.26,429.32Z"/><path class="cls-16" d="M295.26,429.32s-4.92-6.12-10.94-1.25a8.92,8.92,0,0,0-1.44.81c-.35,2.68-.64,5.54-.38,6.26.52,1.46,8.29,1.15,9.39.63.81-.39,2.68-4.35,3.57-6.33Z"/><rect class="cls-17" x="275.1" y="441.76" width="22.8" height="4.67" rx="1.21"/><path class="cls-11" d="M330.32,275.22c-.42.46-.84.95-1.25,1.48a22.32,22.32,0,0,0-4.59,7.79.38.38,0,0,0,.25.49.39.39,0,0,0,.5-.25c.13-.4.27-.79.43-1.17a.42.42,0,0,0,.17.11.4.4,0,0,0,.49-.25,20.8,20.8,0,0,1,3.36-6.22c.58-.65,1.16-1.23,1.71-1.74l-1.07-.24Zm2.31.52,1.37.31a24.28,24.28,0,0,0-2.05,2.18,21,21,0,0,0-3.35,6.22.4.4,0,0,1-.4.27c0,.13-.09.26-.13.39a.4.4,0,0,1-.7.1l0,.06a.38.38,0,0,1-.49.25.39.39,0,0,1-.25-.5,23,23,0,0,1,6-9.28Zm1.71.39,1.42.32a23.47,23.47,0,0,0-5.92,7.64c-.16.4-.32.82-.46,1.26a.45.45,0,0,1-.16.2c-.09.25-.18.49-.26.75a.4.4,0,0,1-.5.25.39.39,0,0,1-.25-.5,19.34,19.34,0,0,1,.91-2.28,23.35,23.35,0,0,1,5.22-7.64Zm1.8.41,1.05.24a24.49,24.49,0,0,0-3.3,3.49,20.87,20.87,0,0,0-3,5.76.4.4,0,0,1-.28.26,1.46,1.46,0,0,1-.07.19.39.39,0,1,1-.74-.24,21.71,21.71,0,0,1,3.46-6.43,25.19,25.19,0,0,1,2.88-3.27Zm2.67.61a23.58,23.58,0,0,0-7.24,10.36.41.41,0,0,0,.25.5.4.4,0,0,0,.5-.25,22.82,22.82,0,0,1,7-10,25.54,25.54,0,0,0-2.92,3.17,22,22,0,0,0-3.65,6.67.39.39,0,0,0,.25.5l.07,0h0c0,.1-.07.19-.1.28h0a.39.39,0,0,0,.25.5.4.4,0,0,0,.5-.25l.12-.37h0l.12-.34,0,0c.09-.24.18-.47.28-.7h0l.15-.34h0l.15-.32v0h0l.15-.32h0c.05-.1.1-.21.16-.31v0l.15-.28,0-.07c0-.09.09-.17.13-.25l0-.07c0-.08.09-.16.14-.24l0-.08.13-.22.06-.09a2.39,2.39,0,0,1,.13-.21l.07-.11L336,284l.08-.12.11-.17.08-.12.11-.17.1-.13.09-.13v0a21.21,21.21,0,0,0-2.19,4.62.39.39,0,0,0,.25.5h0l-.24.68a.4.4,0,0,0,.25.5.39.39,0,0,0,.49-.25c0-.07.05-.13.07-.19a.41.41,0,0,0,.27-.26c.11-.32.22-.62.34-.93a.39.39,0,0,0,.26.47.38.38,0,0,0,.49-.25,22.7,22.7,0,0,1,6.66-9.72l.17-.12-1.17-.27-.42.35.41-.35-3.38-.77Zm4.63,1.05a23.45,23.45,0,0,0-6.89,10.06.4.4,0,0,0,.75.25l.09-.27a.42.42,0,0,0,.24.23.41.41,0,0,0,.5-.25,22.51,22.51,0,0,1,6.65-9.71l-1.34-.31Zm1.68.39,3.34.76a23.05,23.05,0,0,0-7.62,10.52.39.39,0,0,1-.5.25.42.42,0,0,1-.21-.16.42.42,0,0,1-.39.09.39.39,0,0,1-.25-.5,22.49,22.49,0,0,1,5.18-8.42,21.91,21.91,0,0,0-5.42,8.55.39.39,0,0,1-.74-.24l0-.11a.37.37,0,0,1-.31,0,.38.38,0,0,1-.25-.49,23.36,23.36,0,0,1,7.14-10.28Zm3.56.81,1,.23a23.07,23.07,0,0,0-8,10.81.39.39,0,0,1-.75-.24A23.75,23.75,0,0,1,348.68,279.4Z"/><path class="cls-11" d="M309.17,358.59a21.27,21.27,0,0,0-3.53-.59,22.36,22.36,0,0,0-9.5.5.59.59,0,0,0-.41.54.32.32,0,0,0,.43.31c.45-.12.9-.23,1.34-.32a.44.44,0,0,0-.05.22.31.31,0,0,0,.43.31,21.81,21.81,0,0,1,7.47-.69,20.78,20.78,0,0,1,3.62.93l.2-1.21Zm-.39,2.41-.21,1.35a22,22,0,0,0-3.46-.73,21.59,21.59,0,0,0-7.47.7.32.32,0,0,1-.41-.2l-.45.11a.32.32,0,0,1-.43-.31.52.52,0,0,1,.09-.29l-.08,0a.32.32,0,0,1-.43-.3.58.58,0,0,1,.41-.54,22.07,22.07,0,0,1,12.44.19Zm-.27,1.68a22,22,0,0,0-10-.29,24.54,24.54,0,0,0-2.62.55.61.61,0,0,0-.42.54.33.33,0,0,0,.43.31l.85-.21a.46.46,0,0,0,.26,0c.49-.14,1-.25,1.44-.34a21.32,21.32,0,0,1,9.85.84l.22-1.42Zm-.28,1.79-.17,1a21.54,21.54,0,0,0-4.33-.82,21.86,21.86,0,0,0-6.89.74.32.32,0,0,1-.35-.1l-.23.06a.31.31,0,0,1-.42-.31.57.57,0,0,1,.41-.54,22.37,22.37,0,0,1,7.73-.72,22.64,22.64,0,0,1,4.25.65Zm-.42,2.63-.15.93a21.33,21.33,0,0,0-12.05-.2.32.32,0,0,1-.43-.31.57.57,0,0,1,.41-.54,22.18,22.18,0,0,1,12.22.12Zm-.16,1a21.24,21.24,0,0,0-3.66-.62,22.23,22.23,0,0,0-8,.69.59.59,0,0,0-.41.54.22.22,0,0,0,0,.08h0l-.32.08h0a.58.58,0,0,0-.41.54.32.32,0,0,0,.43.31l.41-.11h0l.38-.09h0l.8-.17h0l.39-.07h0l.38-.06h0l.38-.05h0l.37-.05h0l.34,0h.08l.3,0h.08l.3,0h.09l.27,0h1.8a22.14,22.14,0,0,0-5.45.79.58.58,0,0,0-.41.53h0l-.78.19a.6.6,0,0,0-.41.54.32.32,0,0,0,.43.31l.22-.05a.32.32,0,0,0,.35.09l1.06-.26a.58.58,0,0,0-.38.53.31.31,0,0,0,.42.31,21.45,21.45,0,0,1,10.26-.27l.57-3.6Zm-.59,3.7-.21,1.37a21.51,21.51,0,0,0-9.65.4.32.32,0,0,1-.43-.31.57.57,0,0,1,.14-.37l-.31.08a.31.31,0,0,1-.42-.31.56.56,0,0,1,.41-.53,22.17,22.17,0,0,1,10.47-.33Zm-.26,1.67a22.37,22.37,0,0,0-10.32.35.6.6,0,0,0-.41.54.34.34,0,0,0,.14.28l-.11,0a.58.58,0,0,0-.42.54.33.33,0,0,0,.43.31,21.53,21.53,0,0,1,10.41-.25l.28-1.8Zm-.29,1.81-.23,1.46a21.41,21.41,0,0,0-9.8.37.32.32,0,0,1-.43-.31.62.62,0,0,1,.09-.29.33.33,0,0,1-.23-.32.57.57,0,0,1,.42-.53,22.1,22.1,0,0,1,10.18-.38Zm-.26,1.7a22.21,22.21,0,0,0-10.07.4.58.58,0,0,0-.42.54.33.33,0,0,0,.43.31,21.43,21.43,0,0,1,9.91-.35Z"/><path class="cls-11" d="M369.07,307.59a28.46,28.46,0,0,0-14.74,2,.56.56,0,0,0-.31.6.32.32,0,0,0,.47.23c.43-.2.85-.39,1.27-.55a.41.41,0,0,0,0,.22.31.31,0,0,0,.47.23,21.66,21.66,0,0,1,7.24-2,19.93,19.93,0,0,1,5.83.75l-.22-1.49Zm.38,2.62.2,1.38a20.6,20.6,0,0,0-5.94-.5,21.5,21.5,0,0,0-7.22,2A.34.34,0,0,1,356,313l-.42.19a.31.31,0,0,1-.47-.23.49.49,0,0,1,0-.29l-.07,0a.32.32,0,0,1-.48-.23.58.58,0,0,1,.31-.6,22,22,0,0,1,14.51-1.64Zm.23,1.63A22.15,22.15,0,0,0,357.35,313a25,25,0,0,0-2.49,1,.61.61,0,0,0-.31.61.32.32,0,0,0,.48.23l.8-.37a.31.31,0,0,0,.26,0c.45-.21.91-.41,1.36-.59a20.92,20.92,0,0,1,12.47-.36l-.24-1.68Zm.26,1.85a21.86,21.86,0,0,0-6.95-.24,22.46,22.46,0,0,0-7.48,2.09.59.59,0,0,0-.31.6.32.32,0,0,0,.48.23l.21-.1a.35.35,0,0,0,.37,0,21.54,21.54,0,0,1,6.64-2,20.52,20.52,0,0,1,7.21.55l-.17-1.21Zm.4,2.86.28,2c-.32-.09-.71-.19-1.15-.28h.06l.06,0h.12l.05,0,.12,0h0l.1,0,.05,0h.25l0,0h.28l.19,1.36a19.39,19.39,0,0,0-2.07-.39c.82.12,1.52.27,2.08.41l.35,2.51a21.41,21.41,0,0,0-13.12,1.77.31.31,0,0,1-.47-.23.52.52,0,0,1,.07-.38l-.29.13a.31.31,0,0,1-.47-.22.57.57,0,0,1,.31-.61A22.1,22.1,0,0,1,370.26,321l-.83-.21a21.35,21.35,0,0,0-12,1.94.31.31,0,0,1-.47-.23.59.59,0,0,1,.27-.59l-1,.45a.33.33,0,0,1-.36,0l-.21.1a.31.31,0,0,1-.47-.23.56.56,0,0,1,.31-.6c.24-.12.48-.23.73-.33h0a.56.56,0,0,1,.31-.6,22.82,22.82,0,0,1,5.21-1.75h0l-.16,0-.17,0-.2,0-.15,0-.22,0-.13,0-.22,0-.14,0-.25.05-.11,0-.26.07-.09,0-.29.07-.08,0-.29.08-.08,0c-.11,0-.21.06-.32.09h0l-.35.11h0l-.36.12h0l-.36.13h0l-.38.14h0l-.76.31,0,0-.35.16h0l-.39.18a.32.32,0,0,1-.48-.23.59.59,0,0,1,.31-.6h0l.3-.14h0l0-.08a.58.58,0,0,1,.32-.6A23.34,23.34,0,0,1,368,317a21.34,21.34,0,0,0-12.49,1.88.32.32,0,0,1-.48-.23.61.61,0,0,1,.31-.61,22,22,0,0,1,15-1.5Zm.88,6.25a22.15,22.15,0,0,0-13.82,1.79.58.58,0,0,0-.31.61.3.3,0,0,0,.19.24l-.11.05a.58.58,0,0,0-.31.6.31.31,0,0,0,.47.23,21.54,21.54,0,0,1,10.37-2.09,22.43,22.43,0,0,0-10.13,2.19.58.58,0,0,0-.31.61.3.3,0,0,0,.28.26.55.55,0,0,0,0,.31.32.32,0,0,0,.47.23,21.29,21.29,0,0,1,13.7-1.65l-.46-3.38Zm.49,3.59.14,1a21.26,21.26,0,0,0-14,1.6.32.32,0,0,1-.48-.23.6.6,0,0,1,.31-.61A22.13,22.13,0,0,1,371.71,326.39Z"/><path class="cls-11" d="M284.25,254.76a5.71,5.71,0,0,0-11.4.76c.82,12.1,2.15,25.55,4.09,40.48H173.16c2.06-14.85,3.69-28.22,5-40.25a5.72,5.72,0,0,0-11.37-1.21c-2.55,23.77-6.45,52.75-12.26,88-4.94,30-11.26,64.44-19.3,104h11.64c7.88-38.83,14.08-72.67,18.94-102.11,2.17-13.15,4.07-25.42,5.74-36.89h107q2.5,17.25,6.1,37c5.4,29.47,12.83,63.28,22.85,102h11.8c-10.33-39.63-17.93-74.11-23.42-104.06-2.71-14.75-4.9-28.41-6.65-41a5.72,5.72,0,0,0-.12-.83C286.72,283.46,285.18,268.26,284.25,254.76Z"/><rect class="cls-19" x="263.48" y="241.46" width="271.3" height="23.42" rx="5.51"/><path class="cls-8" d="M529.25,241.46H211.52A5.54,5.54,0,0,0,206,247v7.34h328.8V247A5.54,5.54,0,0,0,529.25,241.46Z"/><path class="cls-13" d="M534.75,237.21H263.5a6,6,0,0,0-6,6h0a6,6,0,0,0,6,6H534.75a6,6,0,0,0,6-6h0A6,6,0,0,0,534.75,237.21Z"/><rect class="cls-20" x="160.97" y="241.46" width="130.4" height="23.42" rx="5.51"/><path class="cls-11" d="M283.21,241.46H169.12c-4.49,0-8.15,2.48-8.15,5.51v7.34H291.36V247C291.36,243.94,287.7,241.46,283.21,241.46Z"/><path class="cls-14" d="M291.36,237.21H157.7a6,6,0,0,0-6,6h0a6,6,0,0,0,6,6H291.36a6,6,0,0,0,6-6h0A6,6,0,0,0,291.36,237.21Z"/><path class="cls-21" d="M355.43,237.21s-5.78-6.58-4.37-14.33,1.55-22.72-6.63-26.95-18.19-3.65-22.57,2.4c0,0-2.33-3.32-4.94-3.17s-.42,4.3.21,4.79c-26.77-8.32-2.89,31.76-21.86,37.26Z"/><path class="cls-8" d="M355.43,237.21s-5.78-6.58-4.37-14.33c.19-1,.36-2.23.48-3.49-8.85,3.17-29.63,9.15-39.09-.38A31.28,31.28,0,0,1,304,203.88c-2.47,8.23,2.51,24.28-4.45,30.94,2.22.61,4.73,1.36,7.55,2.39Z"/><path class="cls-22" d="M384,237.21c5.4-4.16,2.24-18.27-10.84-14.43-9.31,2.73-25.08,8.25-27,8.66-2.65.57-8.61,0-10.12,0a5.77,5.77,0,0,0-5.36,5.77H384Z"/><path class="cls-22" d="M257.4,237.21a6.9,6.9,0,0,1-3.52-6.78c.42-4.87,6.26-9.69,10.66-10.18s52.22,10.22,56.7,10.82,14.52,0,17.07,0,9,1.61,9,6.14h-90Z"/><path class="cls-23" d="M390.53,198.89s-.72-2.58-2.89-2.69-3,2.57-2.36,2.9S390.53,198.89,390.53,198.89Z"/><path class="cls-23" d="M388.64,203.48l.59-.13h0l2-.41c-2.41,6.6-9.12,5.65-6.48.57l3.31-.68v.33a.36.36,0,0,0,.45.34Z"/><path class="cls-3" d="M492,140.49H397.82a6.1,6.1,0,0,0-5.68,4.7L378.86,209a3.71,3.71,0,0,0,3.72,4.7h94.2a6.11,6.11,0,0,0,5.68-4.7l13.27-63.78A3.71,3.71,0,0,0,492,140.49Z"/><path class="cls-24" d="M492,140.49h-91.1a6.12,6.12,0,0,0-5.69,4.7L382,209a3.71,3.71,0,0,0,3.72,4.7h91.11a6.11,6.11,0,0,0,5.68-4.7l13.27-63.78A3.71,3.71,0,0,0,492,140.49Z"/><path class="cls-25" d="M417,213.67h23.08a8.21,8.21,0,0,0,.65-1.7c0-.91-5.3-16.79-13-19.28l-4.49-.11Z"/><path class="cls-26" d="M483.31,184.92H391.82a2.37,2.37,0,0,0-2.2,1.82h0a1.45,1.45,0,0,0,1.45,1.83h91.48a2.37,2.37,0,0,0,2.2-1.83h0A1.44,1.44,0,0,0,483.31,184.92Z"/><path class="cls-26" d="M481.12,190.47H391.7a3.71,3.71,0,0,0-3.45,2.85l-3.09,14.89a2.25,2.25,0,0,0,2.25,2.85h89.42a3.71,3.71,0,0,0,3.45-2.85l3.1-14.89A2.26,2.26,0,0,0,481.12,190.47Z"/><path class="cls-25" d="M417.77,211.06h22.74c-1.07-3.59-6-16.18-12.77-18.37l-4.49-.11Z"/><path class="cls-25" d="M480.4,155.32H464.88a2.27,2.27,0,0,0-2.11,1.74l-4.68,22.5a1.38,1.38,0,0,0,1.38,1.74H475a2.28,2.28,0,0,0,2.11-1.74l4.68-22.5A1.37,1.37,0,0,0,480.4,155.32Z"/><path class="cls-26" d="M482.46,155.32H466.94a2.27,2.27,0,0,0-2.11,1.74l-4.68,22.5a1.38,1.38,0,0,0,1.38,1.74h15.52a2.28,2.28,0,0,0,2.11-1.74l4.68-22.5A1.37,1.37,0,0,0,482.46,155.32Z"/><path class="cls-25" d="M478.51,168.31h0a1.2,1.2,0,0,0-1.12.93l-1.63,7.8a.74.74,0,0,0,.74.93h0a1.2,1.2,0,0,0,1.12-.93l1.63-7.8A.74.74,0,0,0,478.51,168.31Z"/><path class="cls-25" d="M474.13,168.31h0a1.22,1.22,0,0,0-1.13.93l-1.62,7.8a.73.73,0,0,0,.73.93h0a1.2,1.2,0,0,0,1.13-.93l1.62-7.8A.73.73,0,0,0,474.13,168.31Z"/><path class="cls-25" d="M469.74,168.31h0a1.21,1.21,0,0,0-1.12.93L467,177a.73.73,0,0,0,.73.93h0a1.19,1.19,0,0,0,1.12-.93l1.63-7.8A.74.74,0,0,0,469.74,168.31Z"/><path class="cls-25" d="M465.36,168.31h0a1.2,1.2,0,0,0-1.12.93l-1.63,7.8a.73.73,0,0,0,.74.93h0a1.2,1.2,0,0,0,1.12-.93l1.62-7.8A.73.73,0,0,0,465.36,168.31Z"/><path class="cls-26" d="M491.38,146.11H399.9a2.37,2.37,0,0,0-2.2,1.82h0a1.44,1.44,0,0,0,1.45,1.82h91.48a2.37,2.37,0,0,0,2.2-1.82h0A1.44,1.44,0,0,0,491.38,146.11Z"/><path class="cls-25" d="M480.26,192.13H391.87a.94.94,0,0,0-.87.71h0a.57.57,0,0,0,.57.71H480a.93.93,0,0,0,.86-.71h0a.56.56,0,0,0-.57-.71Zm-3.17,15.25h-88.4a.93.93,0,0,0-.86.71h0a.56.56,0,0,0,.57.71h88.39a.92.92,0,0,0,.86-.71h0a.56.56,0,0,0-.56-.71Zm.63-3H389.33a.93.93,0,0,0-.86.71h0a.56.56,0,0,0,.56.71h88.4a.93.93,0,0,0,.86-.71h0a.56.56,0,0,0-.57-.71Zm.64-3.05H390a.93.93,0,0,0-.86.71h0a.56.56,0,0,0,.57.71h88.39a.92.92,0,0,0,.86-.71h0a.56.56,0,0,0-.56-.71Zm.63-3.05H390.6a.92.92,0,0,0-.86.71h0a.56.56,0,0,0,.56.71h88.4a.93.93,0,0,0,.86-.71h0a.56.56,0,0,0-.57-.71Zm.64-3h-88.4a.93.93,0,0,0-.86.71h0a.56.56,0,0,0,.57.71h88.39a.93.93,0,0,0,.86-.71h0A.56.56,0,0,0,479.63,195.18Z"/><path class="cls-27" d="M423,193.55h6.61a8.75,8.75,0,0,0-1.84-.86l-4.49-.11-.28,1Zm-.48,1.63-.43,1.42H433c-.44-.5-.88-1-1.35-1.42Zm-.91,3-.42,1.42h14.08c-.32-.48-.64-1-1-1.42Zm-.91,3.05-.42,1.42H437c-.25-.47-.51-.95-.78-1.42Zm-.9,3.05-.42,1.42h19.13c-.2-.46-.43-.94-.66-1.42Zm-.91,3-.42,1.42h21.3l-.56-1.42Z"/><path class="cls-25" d="M403,166.73h-1.61a1.36,1.36,0,0,0-1.27,1.05l-1,4.66a.84.84,0,0,0,.84,1.06h1.6a1.37,1.37,0,0,0,1.28-1.06l1-4.66A.83.83,0,0,0,403,166.73Z"/><path class="cls-26" d="M405.74,156.72h-3a2.58,2.58,0,0,0-2.4,2l-1.81,8.72a1.56,1.56,0,0,0,1.57,2h3a2.57,2.57,0,0,0,2.39-2l1.81-8.72A1.56,1.56,0,0,0,405.74,156.72Z"/><path class="cls-26" d="M456.52,153.63H416.44a2,2,0,0,0-1.82,1.51l-5,24.08a1.19,1.19,0,0,0,1.19,1.5h40.08a2,2,0,0,0,1.81-1.5l5-24.08A1.2,1.2,0,0,0,456.52,153.63Z"/><path class="cls-3" d="M453.65,157.12H432.11a1,1,0,0,0-1,.79h0a.62.62,0,0,0,.63.79h21.54a1,1,0,0,0,1-.79h0A.62.62,0,0,0,453.65,157.12Z"/><path class="cls-25" d="M452.83,161.08h-34a1,1,0,0,0-1,.79h0a.62.62,0,0,0,.63.79h34a1,1,0,0,0,.95-.79h0A.64.64,0,0,0,452.83,161.08Z"/><path class="cls-25" d="M452,165.12H418a1,1,0,0,0-1,.79h0a.62.62,0,0,0,.63.79h34a1,1,0,0,0,.95-.79h0A.62.62,0,0,0,452,165.12Z"/><path class="cls-25" d="M451.15,169.16h-34a1,1,0,0,0-1,.79h0a.62.62,0,0,0,.63.79h34a1,1,0,0,0,.95-.79h0A.62.62,0,0,0,451.15,169.16Z"/><path class="cls-25" d="M450.31,173.2h-34a1,1,0,0,0-1,.79h0a.62.62,0,0,0,.63.79h34a1,1,0,0,0,1-.79h0A.62.62,0,0,0,450.31,173.2Z"/><path class="cls-25" d="M449.46,177.24h-34a1,1,0,0,0-1,.79h0a.62.62,0,0,0,.62.79h34a1,1,0,0,0,1-.79h0A.62.62,0,0,0,449.46,177.24Z"/><path class="cls-25" d="M419.67,157.12h8.46a.62.62,0,0,1,.62.79h0a1,1,0,0,1-.95.79h-8.46a.63.63,0,0,1-.63-.79h0A1,1,0,0,1,419.67,157.12Z"/><path class="cls-25" d="M426.62,193.17c-.74,0-1.92.19-1.92-.55a1.34,1.34,0,0,1,1.35-1.35h26.73a5.27,5.27,0,0,1,5.54,5.34c.12,1.72.85,7.13,1.67,13,.8,5.68,1.74,12.07,2.27,15.63a20.22,20.22,0,0,1,.24,3,10.9,10.9,0,0,1-1.33,5.6,6.79,6.79,0,0,1-5.12,3.29,11,11,0,0,1-1.55.11H425.91a1.34,1.34,0,0,1-1.35-1.35c0-.74,1.24-.44,2-.44l4.82-.91a7.09,7.09,0,0,0,1.17-.08,4.2,4.2,0,0,0,3.2-2,8.38,8.38,0,0,0,.93-4.22,19,19,0,0,0-.2-2.61c-.5-3.39-1.72-9.59-2.58-15.65-.83-5.9-1.56-11.38-1.68-13.17a2.69,2.69,0,0,0-2.77-2.82h-.13Z"/><path class="cls-3" d="M424.6,194a1.35,1.35,0,1,1,0-2.69h2.74a5.28,5.28,0,0,1,5.54,5.34c.12,1.72.84,7.13,1.67,13,.8,5.68,1.74,12.07,2.27,15.63a21.64,21.64,0,0,1,.23,3,10.89,10.89,0,0,1-1.32,5.6,6.82,6.82,0,0,1-5.12,3.29,11,11,0,0,1-1.55.11h-7.32a1.35,1.35,0,0,1,0-2.7h7.32a7,7,0,0,0,1.16-.08,4.2,4.2,0,0,0,3.2-2,8.28,8.28,0,0,0,.94-4.22,17.55,17.55,0,0,0-.21-2.61c-.5-3.39-1.41-9.59-2.27-15.65-.83-5.9-1.56-11.38-1.69-13.17a2.68,2.68,0,0,0-2.76-2.82H424.6Z"/><path class="cls-28" d="M335.77,127.51a20.15,20.15,0,0,0,19.62,15.86h28v24a7.36,7.36,0,0,1-7.34,7.34h-49l-12.51,12.51a.82.82,0,0,1-1.4-.58V134.85a7.36,7.36,0,0,1,7.34-7.34Z"/><path class="cls-29" d="M374.26,125.37H318.67a7.37,7.37,0,0,0-7.34,7.35V184.5a.81.81,0,0,0,.5.76.82.82,0,0,0,.9-.18l12.5-12.51h49a7.36,7.36,0,0,0,7.34-7.34V132.72A7.37,7.37,0,0,0,374.26,125.37Z"/><text class="cls-30" transform="translate(319.39 157.98)"><tspan class="cls-31">40</tspan><tspan x="26.56" y="0">4 !</tspan></text><path class="cls-32" d="M177.43,325.76c14.65-7.79,18.37,9.15,12.67,23.18s-34.92,61.22-36.45,79.94c-.59,7.25-1.94,6.46-3.1,1.37C144.78,404.88,157.26,336.48,177.43,325.76Z"/><path class="cls-33" d="M146.41,261.47c-16.8-15.12-27.31,6-24.4,26.47s26,92.45,21.82,117.69c-1.61,9.79.44,9.19,3.65,2.84C163.48,376.84,169.53,282.3,146.41,261.47Z"/><path class="cls-34" d="M143.48,412.65c.36.94,1.16.47,2.23-1.09,17.51-58.33-9.77-145.47-9.85-145.75a.91.91,0,1,0-1.74.54C134.2,266.63,161.85,355,143.48,412.65Z"/><path class="cls-35" d="M109.71,309.93c-16.27-7.08-18.83,11.3-11.58,25.79s42.36,62.4,45.55,82.24c1.23,7.69,2.61,6.73,3.42,1.21C151.14,391.62,132.12,319.69,109.71,309.93Z"/><path class="cls-36" d="M145.16,423.27c.5.61,1,.06,1.39-1.37-1.47-47.8-43.48-105.92-43.61-106.11a.72.72,0,0,0-1-.16.71.71,0,0,0-.17,1C101.91,316.81,144.49,375.73,145.16,423.27Z"/><polygon class="cls-11" points="132.64 413.86 163.91 413.86 172.07 421.23 165.41 446.93 148.27 446.93 131.14 446.93 124.47 421.23 132.64 413.86"/><rect class="cls-37" x="121.88" y="403.12" width="52.78" height="16.93" rx="2.59"/><polygon class="cls-7" points="172.07 421.23 170.7 426.51 125.84 426.51 124.47 421.23 172.07 421.23"/><path class="cls-28" d="M208,91.88Zm3.27-12.46a6.3,6.3,0,1,1-1.84,4.45,6.31,6.31,0,0,1,1.84-4.45Zm1.36-6.23a10.8,10.8,0,0,0-2.47,1A11,11,0,0,0,208,75.87a.38.38,0,0,1-.46,0l-2.93-1.68h0a.71.71,0,0,0-.53-.06.67.67,0,0,0-.44.33l0,0-2.05,3.57a.76.76,0,0,0-.08.55.74.74,0,0,0,.34.44h0l2.9,1.67a.4.4,0,0,1,.18.43h0c-.1.43-.18.88-.24,1.33a11.52,11.52,0,0,0,0,2.71c.06.45.14.9.24,1.33a.38.38,0,0,1-.2.44l-2.9,1.67h0a.74.74,0,0,0-.34.44.76.76,0,0,0,.08.55l2.06,3.59h0a.67.67,0,0,0,.44.33.69.69,0,0,0,.54-.07h0l2.9-1.67a.39.39,0,0,1,.46,0,11.12,11.12,0,0,0,4.65,2.69.38.38,0,0,1,.28.37v3.37a.72.72,0,0,0,.21.51.73.73,0,0,0,.51.22h4.14a.73.73,0,0,0,.51-.22.72.72,0,0,0,.21-.51V94.94a.4.4,0,0,1,.3-.38,10.8,10.8,0,0,0,2.47-1,11,11,0,0,0,2.16-1.63.38.38,0,0,1,.48,0l2.91,1.67a.74.74,0,0,0,1-.26v0l2.06-3.57h0a.81.81,0,0,0,.07-.55.74.74,0,0,0-.34-.44L226.7,87a.4.4,0,0,1-.18-.43h0a11.17,11.17,0,0,0,.24-1.33,11.52,11.52,0,0,0,0-2.71,11.17,11.17,0,0,0-.24-1.33.38.38,0,0,1,.2-.44l2.9-1.67a.74.74,0,0,0,.34-.44.81.81,0,0,0-.07-.55l0,0-2.05-3.57h0a.74.74,0,0,0-1-.26h0l-2.93,1.68a.38.38,0,0,1-.47-.06,11.33,11.33,0,0,0-2.15-1.62,11.58,11.58,0,0,0-2.48-1.06.39.39,0,0,1-.29-.37V69.44a.72.72,0,0,0-.72-.72h-4.14a.72.72,0,0,0-.72.72v3.37A.4.4,0,0,1,212.63,73.19Z"/><path class="cls-28" d="M253,109.19a14.81,14.81,0,1,1-3.22,4.81,14.63,14.63,0,0,1,3.22-4.81Zm5.33-2a13.64,13.64,0,0,0-7.29,7.29,13.63,13.63,0,0,0,0,10.3,13.64,13.64,0,0,0,7.29,7.29,13.61,13.61,0,0,0,10.29,0,13.62,13.62,0,0,0,7.3-7.29,13.63,13.63,0,0,0,0-10.3,13.64,13.64,0,0,0-7.29-7.29,13.63,13.63,0,0,0-10.3,0Zm-1.64-10.91a24,24,0,0,0-2.73,1,22.86,22.86,0,0,0-2.62,1.31,23.63,23.63,0,0,0-2.48,1.64,25.88,25.88,0,0,0-2.25,1.92,1.55,1.55,0,0,1-.89.43,1.58,1.58,0,0,1-1-.2c-2.18-1.26-4.46-2.5-6.6-3.81a.75.75,0,0,0-.32-.1,1.1,1.1,0,0,0-.36,0,.78.78,0,0,0-.33.16.93.93,0,0,0-.25.27c-1.58,2.4-3.18,5.51-4.65,8a.89.89,0,0,0-.11.35,1,1,0,0,0,.19.7.93.93,0,0,0,.27.25c2,1.29,4.48,2.59,6.56,3.79a1.44,1.44,0,0,1,.65.73,1.19,1.19,0,0,1,.1.32l.14,0-.15.61c-.12.48-.23,1-.31,1.44s-.16,1-.23,1.46-.1,1-.13,1.48,0,1,0,1.49,0,1,0,1.49.07,1,.13,1.47.14,1,.23,1.47.19,1,.31,1.44a1.61,1.61,0,0,1-.1,1,1.55,1.55,0,0,1-.7.73l-5.81,3.35h0l-.69.39a1.05,1.05,0,0,0-.27.24.89.89,0,0,0-.16.34.78.78,0,0,0,0,.37.8.8,0,0,0,.11.34l4.3,7.46h0l.34.61a1.07,1.07,0,0,0,.25.27.92.92,0,0,0,.33.16,1.16,1.16,0,0,0,.37,0,.87.87,0,0,0,.34-.12c2.08-1.3,4.43-2.55,6.58-3.79a1.57,1.57,0,0,1,1-.2,1.55,1.55,0,0,1,.88.42h0a23.23,23.23,0,0,0,2.26,1.93,22.5,22.5,0,0,0,2.47,1.64,24.07,24.07,0,0,0,2.64,1.32,22.83,22.83,0,0,0,2.78,1,1.53,1.53,0,0,1,.81.56,1.57,1.57,0,0,1,.32.94v7.58a.81.81,0,0,0,.07.35,1,1,0,0,0,.21.31.9.9,0,0,0,.3.21,1,1,0,0,0,.36.07h9.3a1,1,0,0,0,.36-.07.9.9,0,0,0,.3-.21,1,1,0,0,0,.21-.31,1,1,0,0,0,.07-.35v-7.58a1.59,1.59,0,0,1,1.2-1.52,23.85,23.85,0,0,0,5.35-2.28,22.5,22.5,0,0,0,2.47-1.64,23.23,23.23,0,0,0,2.26-1.93,1.58,1.58,0,0,1,.94-.42,1.52,1.52,0,0,1,1,.25l6.49,3.74a.91.91,0,0,0,.35.12,1.16,1.16,0,0,0,.37,0,1,1,0,0,0,.58-.43c1.54-2.69,3.1-5.37,4.65-8.06a.85.85,0,0,0,.11-.34.78.78,0,0,0,0-.37.89.89,0,0,0-.16-.34.9.9,0,0,0-.27-.24l-6.56-3.79a1.5,1.5,0,0,1-.66-.73,1.83,1.83,0,0,1-.08-.25l-.17,0,.17-.7c.12-.48.23-1,.31-1.44s.16-1,.23-1.47.1-1,.13-1.47,0-1,0-1.49,0-1,0-1.49-.07-1-.13-1.47-.14-1-.23-1.47-.19-1-.31-1.44a1.57,1.57,0,0,1,.1-1,1.62,1.62,0,0,1,.7-.72l6.5-3.75a.9.9,0,0,0,.27-.24.89.89,0,0,0,.16-.34.78.78,0,0,0,0-.37.89.89,0,0,0-.11-.35c-1.59-2.36-3.18-5.51-4.65-8a.93.93,0,0,0-.25-.27,1,1,0,0,0-.7-.19.81.81,0,0,0-.35.12l-6.56,3.79a1.52,1.52,0,0,1-1,.19,1.56,1.56,0,0,1-.89-.43,23.6,23.6,0,0,0-4.71-3.55A25,25,0,0,0,273,97.29a25.41,25.41,0,0,0-2.78-1,1.46,1.46,0,0,1-.81-.55,1.59,1.59,0,0,1-.32-.94V87.23a1,1,0,0,0-.07-.36,1,1,0,0,0-.21-.3.9.9,0,0,0-.3-.21,1,1,0,0,0-.36-.07h-9.3a1,1,0,0,0-.36.07.9.9,0,0,0-.3.21.93.93,0,0,0-.28.66v7.58a1.53,1.53,0,0,1-.33,1,1.58,1.58,0,0,1-.87.55ZM253.41,96a25.52,25.52,0,0,0-2.77,1.38A27.44,27.44,0,0,0,248,99.15a25.61,25.61,0,0,0-2.38,2,.21.21,0,0,1-.11,0,.14.14,0,0,1-.11,0l-6.63-3.82a2.07,2.07,0,0,0-.82-.26,2.3,2.3,0,0,0-1.69.46,2.28,2.28,0,0,0-.59.68c-1.6,2.59-3.12,5.4-4.65,8a2.26,2.26,0,0,0-.29.85,2.31,2.31,0,0,0,.06.91,2.45,2.45,0,0,0,.4.81,2.28,2.28,0,0,0,.68.59c2.11,1.3,4.4,2.54,6.56,3.79a.16.16,0,0,1,.07.09.14.14,0,0,1,0,.11l-.15.61h0c-.06.29-.12.6-.18.9-.1.53-.18,1.05-.24,1.55s-.11,1-.14,1.56-.05,1.06-.05,1.57,0,1,.05,1.57.08,1.05.14,1.56.14,1,.24,1.54.21,1,.33,1.53a.17.17,0,0,1,0,.12.11.11,0,0,1-.08.08c-2.41,1.29-4.86,2.81-7.24,4.19l.08.1-.07.09a2.36,2.36,0,0,0-.4.81,2.28,2.28,0,0,0-.06.9,2.25,2.25,0,0,0,.29.86l5,8.65.09,0,.15.13a2.55,2.55,0,0,0,.81.4,2.48,2.48,0,0,0,.9.06,2.38,2.38,0,0,0,.84-.28c2.18-1.16,4.43-2.56,6.59-3.81a.2.2,0,0,1,.11,0,.21.21,0,0,1,.11,0,25.61,25.61,0,0,0,2.38,2,27.44,27.44,0,0,0,2.61,1.73,27.88,27.88,0,0,0,2.79,1.39,23.88,23.88,0,0,0,2.94,1,.18.18,0,0,1,.1.07.15.15,0,0,1,0,.11v7.58a2.34,2.34,0,0,0,.17.88,2.27,2.27,0,0,0,.51.75,2.24,2.24,0,0,0,.75.5,2.16,2.16,0,0,0,.88.18h9.3a2.16,2.16,0,0,0,.88-.18,2.24,2.24,0,0,0,.75-.5,2.43,2.43,0,0,0,.51-.75,2.34,2.34,0,0,0,.17-.88v-7.58a.21.21,0,0,1,0-.12.17.17,0,0,1,.1-.06h0a26.17,26.17,0,0,0,5.7-2.42,27.44,27.44,0,0,0,2.61-1.73,25.61,25.61,0,0,0,2.38-2,.16.16,0,0,1,.11-.05.27.27,0,0,1,.12,0l6.56,3.79a2.29,2.29,0,0,0,1.75.23,2.5,2.5,0,0,0,.82-.4,2.46,2.46,0,0,0,.58-.66c1.72-2.77,3.35-5.81,5-8.66l-.09-.05a1.43,1.43,0,0,0,0-.22,2.28,2.28,0,0,0-.06-.9,2.36,2.36,0,0,0-.4-.81,2.28,2.28,0,0,0-.68-.59l-6.56-3.79a.16.16,0,0,1-.07-.09.16.16,0,0,1,0-.12l.18-.69h0c.05-.27.11-.55.16-.83.1-.52.18-1,.24-1.54s.11-1,.14-1.56,0-1.06,0-1.57,0-1,0-1.57S289,117,289,116.54s-.14-1-.24-1.55-.2-1-.33-1.52a.17.17,0,0,1,0-.12.14.14,0,0,1,.08-.09l6.56-3.78a2.28,2.28,0,0,0,.67-.6,2.31,2.31,0,0,0,.4-.8,2.28,2.28,0,0,0,.06-.9,2.38,2.38,0,0,0-.28-.84c-1.56-2.89-3.35-5.81-5-8.68l-.09.06-.15-.13a2.32,2.32,0,0,0-.82-.4,2.21,2.21,0,0,0-.89-.06,2.42,2.42,0,0,0-.86.28l-.48.28h0l-6.09,3.51a.27.27,0,0,1-.12,0,.21.21,0,0,1-.1-.06h0a25.6,25.6,0,0,0-2.37-2,27.83,27.83,0,0,0-2.6-1.72A25.89,25.89,0,0,0,273.51,96a23.88,23.88,0,0,0-2.94-1,.26.26,0,0,1-.1-.07.15.15,0,0,1,0-.11V87.23a2.23,2.23,0,0,0-.68-1.63,2.1,2.1,0,0,0-.75-.5,2.16,2.16,0,0,0-.88-.18h-9.3a2.16,2.16,0,0,0-.88.18,2.1,2.1,0,0,0-.75.5,2.29,2.29,0,0,0-.68,1.63v7.58a.28.28,0,0,1,0,.12.24.24,0,0,1-.1.06h0A25.38,25.38,0,0,0,253.41,96Z"/><path class="cls-1" d="M541.93,197.47ZM545.2,185a6.3,6.3,0,1,1-1.84,4.45A6.26,6.26,0,0,1,545.2,185Zm1.36-6.23a11,11,0,0,0-4.63,2.68.38.38,0,0,1-.46,0l-2.93-1.69h0a.78.78,0,0,0-.54-.06.74.74,0,0,0-.44.34v0l-2.06,3.56a.73.73,0,0,0,.27,1l0,0,2.9,1.67a.4.4,0,0,1,.18.43h0a11.17,11.17,0,0,0-.24,1.33,10,10,0,0,0-.08,1.35,10.14,10.14,0,0,0,.08,1.36,11.55,11.55,0,0,0,.24,1.33.38.38,0,0,1-.2.44l-2.9,1.67h0a.74.74,0,0,0-.34.44.71.71,0,0,0,.07.55l2.07,3.59h0a.73.73,0,0,0,.44.33.71.71,0,0,0,.55-.07h0l2.91-1.68a.39.39,0,0,1,.46.06,11.13,11.13,0,0,0,2.16,1.63,10.88,10.88,0,0,0,2.48,1.05.4.4,0,0,1,.28.38v3.37a.73.73,0,0,0,.22.51.72.72,0,0,0,.51.21h4.14a.72.72,0,0,0,.72-.72v-3.37a.39.39,0,0,1,.3-.38,11.26,11.26,0,0,0,2.47-1.05,11.45,11.45,0,0,0,2.16-1.63.38.38,0,0,1,.48,0l2.9,1.67a.71.71,0,0,0,.55.07.73.73,0,0,0,.44-.33l0,0,2-3.57h0a.71.71,0,0,0,.07-.55.69.69,0,0,0-.33-.44l-2.92-1.69a.38.38,0,0,1-.18-.42h0c.1-.43.18-.88.24-1.33a12.12,12.12,0,0,0,.08-1.36,11.94,11.94,0,0,0-.08-1.35c-.06-.46-.14-.9-.24-1.33a.38.38,0,0,1,.2-.44l2.9-1.68a.67.67,0,0,0,.33-.44.72.72,0,0,0-.07-.55v0l-2.06-3.56h0a.74.74,0,0,0-.44-.34.76.76,0,0,0-.55.07h0l-2.92,1.69a.39.39,0,0,1-.47-.06,11.09,11.09,0,0,0-2.16-1.62,10.72,10.72,0,0,0-2.48-1.06.38.38,0,0,1-.28-.37V175a.72.72,0,0,0-.21-.51.69.69,0,0,0-.51-.22h-4.14a.69.69,0,0,0-.51.22.73.73,0,0,0-.22.51v3.37A.39.39,0,0,1,546.56,178.78Z"/><path class="cls-1" d="M673.28,281.94a14.8,14.8,0,0,1,4.82-3.21,14.77,14.77,0,0,1,11.33,0,14.91,14.91,0,0,1,4.82,3.21,15.1,15.1,0,0,1,3.22,4.82,14.84,14.84,0,0,1-8,19.37,14.82,14.82,0,0,1-16.15-3.22,14.85,14.85,0,0,1-3.22-16.15,15.1,15.1,0,0,1,3.22-4.82Zm5.34-1.95a13.28,13.28,0,0,0-4.37,2.93,13.47,13.47,0,0,0-2.92,4.36,13.51,13.51,0,0,0,0,10.3,13.5,13.5,0,0,0,17.58,7.29,13.82,13.82,0,0,0,4.37-2.93,13.39,13.39,0,0,0,3.94-9.51,13.33,13.33,0,0,0-1-5.15A13.47,13.47,0,0,0,678.62,280ZM677,269.08a24.85,24.85,0,0,0-2.74,1,22.86,22.86,0,0,0-2.62,1.31,22.5,22.5,0,0,0-2.47,1.64,23.13,23.13,0,0,0-2.26,1.92,1.59,1.59,0,0,1-.89.43,1.54,1.54,0,0,1-1-.2c-2.18-1.26-4.47-2.5-6.6-3.81a.84.84,0,0,0-.32-.1.92.92,0,0,0-.37,0,.84.84,0,0,0-.33.16.78.78,0,0,0-.24.27c-1.59,2.4-3.18,5.51-4.65,8.05a.93.93,0,0,0-.12.34,1.2,1.2,0,0,0,0,.38,1,1,0,0,0,.16.33.81.81,0,0,0,.28.24c2,1.3,4.48,2.6,6.55,3.79a1.57,1.57,0,0,1,.66.74,1.7,1.7,0,0,1,.1.32l.13.05-.15.61c-.12.48-.22,1-.31,1.44s-.16.95-.22,1.46-.11,1-.14,1.48,0,1,0,1.49,0,1,0,1.49.08,1,.14,1.47.13,1,.22,1.47.19,1,.31,1.44a1.54,1.54,0,0,1-.1,1,1.5,1.5,0,0,1-.7.73l-5.81,3.35h0l-.68.39a1.11,1.11,0,0,0-.28.24,1.06,1.06,0,0,0-.16.34,1.16,1.16,0,0,0,0,.37.82.82,0,0,0,.12.34l4.3,7.45h0l.35.61a.88.88,0,0,0,.24.27,1,1,0,0,0,.33.16,1.22,1.22,0,0,0,.38,0,1.16,1.16,0,0,0,.34-.12c2.07-1.3,4.42-2.55,6.57-3.79a1.51,1.51,0,0,1,1-.2,1.61,1.61,0,0,1,.89.42h0a24.48,24.48,0,0,0,2.26,1.93,22.5,22.5,0,0,0,2.47,1.64,25,25,0,0,0,2.64,1.32,24.08,24.08,0,0,0,2.78,1,1.6,1.6,0,0,1,.82.56,1.54,1.54,0,0,1,.31.94v7.58a1,1,0,0,0,.07.35,1,1,0,0,0,.52.52,1,1,0,0,0,.35.07h9.3a1,1,0,0,0,.36-.07,1.06,1.06,0,0,0,.31-.21.92.92,0,0,0,.2-.31.81.81,0,0,0,.07-.35v-7.58a1.59,1.59,0,0,1,.34-1,1.55,1.55,0,0,1,.86-.55,22.15,22.15,0,0,0,2.73-1,23,23,0,0,0,2.63-1.31,23.5,23.5,0,0,0,2.47-1.64,24.48,24.48,0,0,0,2.26-1.93,1.53,1.53,0,0,1,.93-.42,1.55,1.55,0,0,1,1,.25l6.49,3.74a.82.82,0,0,0,.34.12,1.25,1.25,0,0,0,.38,0,1.12,1.12,0,0,0,.33-.16,1.25,1.25,0,0,0,.24-.27c1.54-2.69,3.11-5.37,4.65-8.06a.8.8,0,0,0,.11-.34.93.93,0,0,0,0-.37,1.09,1.09,0,0,0-.17-.34,1.2,1.2,0,0,0-.26-.24L708.09,300a1.48,1.48,0,0,1-.65-.73,1.21,1.21,0,0,1-.08-.25l-.18,0,.18-.69c.11-.48.22-1,.31-1.44s.16-1,.22-1.47.11-1,.13-1.47.05-1,.05-1.49,0-1-.05-1.49-.07-1-.13-1.47-.14-1-.22-1.47-.19-1-.31-1.44a1.51,1.51,0,0,1,.1-1,1.55,1.55,0,0,1,.69-.72l6.5-3.76a.78.78,0,0,0,.27-.24.94.94,0,0,0,.17-.33.93.93,0,0,0,0-.37.89.89,0,0,0-.11-.35c-1.59-2.36-3.18-5.51-4.65-8.05a1.05,1.05,0,0,0-.24-.27.92.92,0,0,0-.33-.16.83.83,0,0,0-.38,0,.78.78,0,0,0-.34.12l-6.57,3.79a1.52,1.52,0,0,1-1,.19,1.5,1.5,0,0,1-.88-.43,25.38,25.38,0,0,0-2.25-1.92,23.81,23.81,0,0,0-2.46-1.63,25.15,25.15,0,0,0-2.65-1.32,24.69,24.69,0,0,0-2.78-1,1.54,1.54,0,0,1-.81-.55,1.58,1.58,0,0,1-.31-.94V260a.86.86,0,0,0-.07-.36.83.83,0,0,0-.2-.3,1.06,1.06,0,0,0-.31-.21,1,1,0,0,0-.36-.07h-9.3a1,1,0,0,0-.35.07,1,1,0,0,0-.31.21.93.93,0,0,0-.28.66v7.58a1.53,1.53,0,0,1-.33,1,1.59,1.59,0,0,1-.86.55Zm-3.27-.28a25.67,25.67,0,0,0-2.78,1.38,27.44,27.44,0,0,0-2.61,1.73,25.61,25.61,0,0,0-2.38,2,.18.18,0,0,1-.11,0,.15.15,0,0,1-.11,0q-3.32-1.91-6.62-3.82a2.17,2.17,0,0,0-.83-.26,2.32,2.32,0,0,0-.87.06,2.28,2.28,0,0,0-.81.4,2.41,2.41,0,0,0-.6.67c-1.6,2.6-3.12,5.41-4.65,8.06a2.29,2.29,0,0,0-.23,1.75,2.5,2.5,0,0,0,.4.82,2.44,2.44,0,0,0,.68.59c2.11,1.3,4.4,2.54,6.56,3.79a.18.18,0,0,1,.08.09.2.2,0,0,1,0,.11l-.15.61h0c-.07.29-.13.6-.19.9-.09.53-.17,1.05-.23,1.55s-.11,1-.15,1.56,0,1.06,0,1.57,0,1,0,1.57.08,1.05.15,1.55.14,1,.23,1.55.21,1,.33,1.53a.25.25,0,0,1,0,.12.2.2,0,0,1-.08.08c-2.42,1.29-4.87,2.81-7.25,4.19l.08.1-.07.09a2.55,2.55,0,0,0-.4.81,2.48,2.48,0,0,0-.06.9,2.43,2.43,0,0,0,.29.86l5,8.65.09-.05.16.13a2.32,2.32,0,0,0,1.71.46,2.33,2.33,0,0,0,.83-.28c2.19-1.16,4.44-2.56,6.6-3.81l.1,0a.28.28,0,0,1,.11.05,27,27,0,0,0,2.38,2,27.44,27.44,0,0,0,2.61,1.73,27,27,0,0,0,2.8,1.39,25,25,0,0,0,2.94,1,.16.16,0,0,1,.09.07.15.15,0,0,1,0,.11v7.58a2.16,2.16,0,0,0,.18.88,2.4,2.4,0,0,0,.5.75,2.52,2.52,0,0,0,.75.5,2.16,2.16,0,0,0,.88.18h9.3a2.16,2.16,0,0,0,.88-.18,2.45,2.45,0,0,0,.76-.5,2.4,2.4,0,0,0,.5-.75,2.34,2.34,0,0,0,.18-.88v-7.58a.21.21,0,0,1,0-.12.2.2,0,0,1,.11-.06h0a25.22,25.22,0,0,0,2.92-1A25.3,25.3,0,0,0,699.2,313a25.74,25.74,0,0,0,2.39-2,.16.16,0,0,1,.1-.05.24.24,0,0,1,.12,0l6.57,3.79a2.26,2.26,0,0,0,.85.29,2.32,2.32,0,0,0,1.71-.46,2.3,2.3,0,0,0,.58-.66c1.73-2.77,3.36-5.81,5-8.66l-.09-.05a1.7,1.7,0,0,0,0-.22,2.32,2.32,0,0,0-.46-1.71,2.24,2.24,0,0,0-.67-.59l-6.57-3.79a.16.16,0,0,1-.07-.09.17.17,0,0,1,0-.12l.17-.69h0c.06-.27.11-.55.16-.83.1-.52.18-1,.24-1.54s.11-1,.14-1.56.05-1.06.05-1.57,0-1-.05-1.57-.08-1.06-.14-1.56-.14-1-.24-1.55-.2-1-.32-1.52a.17.17,0,0,1,0-.12.24.24,0,0,1,.08-.09l6.56-3.78a2.16,2.16,0,0,0,.67-.6,2.28,2.28,0,0,0,.4-.81,2.21,2.21,0,0,0,.06-.89,2.58,2.58,0,0,0-.27-.84c-1.57-2.89-3.36-5.81-5-8.68l-.1.06-.15-.13a2.32,2.32,0,0,0-1.71-.46,2.3,2.3,0,0,0-.85.28l-.49.28h0L701.8,274a.2.2,0,0,1-.11,0,.24.24,0,0,1-.11-.06h0a25.73,25.73,0,0,0-2.38-2,26.57,26.57,0,0,0-2.6-1.72,25,25,0,0,0-2.79-1.39,23.88,23.88,0,0,0-2.94-1l-.1-.07a.14.14,0,0,1,0-.11V260a2.34,2.34,0,0,0-.18-.88,2.42,2.42,0,0,0-1.26-1.26,2.34,2.34,0,0,0-.88-.17h-9.3a2.34,2.34,0,0,0-.88.17,2.38,2.38,0,0,0-.75.51,2.29,2.29,0,0,0-.68,1.63v7.58a.28.28,0,0,1,0,.12.24.24,0,0,1-.1.06h0A25.22,25.22,0,0,0,673.71,268.8Z"/><path class="cls-4" d="M145.12,153.48a1.08,1.08,0,0,0-2.16,0V156h-2.53a1.08,1.08,0,1,0,0,2.15H143v2.54a1.08,1.08,0,0,0,2.16,0v-2.54h2.54a1.08,1.08,0,1,0,0-2.15h-2.54Z"/><path class="cls-4" d="M332,91.15a1.08,1.08,0,1,0-2.16,0v2.54h-2.54a1.08,1.08,0,1,0,0,2.15h2.54v2.54a1.08,1.08,0,0,0,2.16,0V95.84h2.53a1.08,1.08,0,1,0,0-2.15H332Z"/><path class="cls-4" d="M431,83.82a1.08,1.08,0,0,0-2.16,0v2.53h-2.54a1.08,1.08,0,1,0,0,2.16h2.54v2.54a1.08,1.08,0,1,0,2.16,0V88.51h2.54a1.08,1.08,0,0,0,0-2.16H431Z"/><path class="cls-4" d="M614.33,306.24a1.08,1.08,0,0,0-2.16,0v2.54h-2.54a1.08,1.08,0,0,0,0,2.16h2.54v2.54a1.08,1.08,0,1,0,2.16,0v-2.54h2.54a1.08,1.08,0,0,0,0-2.16h-2.54Z"/><path class="cls-4" d="M196.36,402.79a1.08,1.08,0,1,0-2.16,0v2.54h-2.54a1.08,1.08,0,0,0,0,2.16h2.54V410a1.08,1.08,0,0,0,2.16,0v-2.54h2.54a1.08,1.08,0,0,0,0-2.16h-2.54Z"/><path class="cls-4" d="M146.25,223.14a1.08,1.08,0,0,0-2.16,0v2.54h-2.53a1.08,1.08,0,1,0,0,2.15h2.53v2.54a1.08,1.08,0,1,0,2.16,0v-2.54h2.54a1.08,1.08,0,1,0,0-2.15h-2.54Z"/><rect class="cls-38" x="424.86" y="330.29" width="113.5" height="116.15" rx="3.87"/><rect class="cls-39" x="514.23" y="330.29" width="46.01" height="116.15" rx="3.87"/><rect class="cls-40" x="521.4" y="339.72" width="31.68" height="6.13" rx="2.11"/><path class="cls-41" d="M550.34,341.83a2.12,2.12,0,0,0-2.11-2.11H551a2.12,2.12,0,0,1,2.11,2.11v1.9a2.12,2.12,0,0,1-2.11,2.11h-2.73c.14,0,2.11-.95,2.11-2.11Z"/><rect class="cls-40" x="521.4" y="349.14" width="31.68" height="6.13" rx="2.11"/><path class="cls-41" d="M550.34,351.25a2.12,2.12,0,0,0-2.11-2.11H551a2.12,2.12,0,0,1,2.11,2.11v1.91a2.12,2.12,0,0,1-2.11,2.11h-2.73c.14,0,2.11-.95,2.11-2.11Z"/><rect class="cls-40" x="521.4" y="358.57" width="31.68" height="6.13" rx="2.11"/><path class="cls-41" d="M550.34,360.68a2.12,2.12,0,0,0-2.11-2.11H551a2.12,2.12,0,0,1,2.11,2.11v1.91A2.12,2.12,0,0,1,551,364.7h-2.73c.14,0,2.11-.95,2.11-2.11Z"/><rect class="cls-40" x="521.4" y="368" width="31.68" height="6.13" rx="2.11"/><path class="cls-41" d="M550.34,370.11a2.12,2.12,0,0,0-2.11-2.11H551a2.12,2.12,0,0,1,2.11,2.11V372a2.12,2.12,0,0,1-2.11,2.11h-2.73c.14,0,2.11-.95,2.11-2.11Z"/><rect class="cls-40" x="520.64" y="396.26" width="33.18" height="33.37" rx="8.6"/><path class="cls-41" d="M550.62,404.86a8.62,8.62,0,0,0-8.6-8.6h3.21a8.62,8.62,0,0,1,8.6,8.6V421a8.63,8.63,0,0,1-8.6,8.6H542a8.63,8.63,0,0,0,8.6-8.6Z"/><path class="cls-42" d="M538.2,396.26h-1.93v9.68a7.06,7.06,0,0,0-6,6h-9.68v1.92h9.68a7.09,7.09,0,0,0,6,6.05v9.68h1.93V420a7.09,7.09,0,0,0,6-6.05h9.68V412h-9.68a7.06,7.06,0,0,0-6-6v-9.68Zm-1,21.84a5.16,5.16,0,1,1,5.15-5.16A5.16,5.16,0,0,1,537.24,418.1Z"/><rect class="cls-40" x="520.64" y="387.23" width="14.52" height="6.13" rx="2.11"/><path class="cls-41" d="M532.43,389.34a2.12,2.12,0,0,0-2.11-2.11h2.73a2.12,2.12,0,0,1,2.11,2.11v1.91a2.12,2.12,0,0,1-2.11,2.11h-2.73c.13,0,2.11-.95,2.11-2.11Z"/><rect class="cls-40" x="520.64" y="378.09" width="14.52" height="6.13" rx="2.11"/><path class="cls-41" d="M532.43,380.2a2.12,2.12,0,0,0-2.11-2.11h2.73a2.12,2.12,0,0,1,2.11,2.11v1.9a2.12,2.12,0,0,1-2.11,2.11h-2.73c.13,0,2.11-.95,2.11-2.11Z"/><rect class="cls-39" x="434.55" y="342.1" width="53.29" height="53.59" rx="13.81"/><rect class="cls-43" x="436.34" y="343.89" width="49.7" height="49.99" rx="12.88"/><path class="cls-44" d="M440.46,390.42a12.79,12.79,0,0,0,8.76,3.46h23.95A12.92,12.92,0,0,0,486.05,381V361.85H475V348.27h-26.4v28.78h-8.1Z"/><path class="cls-25" d="M498.65,405.29h-1.58a1.44,1.44,0,0,0,2.56,0,7.94,7.94,0,0,0-1,0Zm-2.74,0h-2.59a1.44,1.44,0,0,0,2.59,0Zm-3.75,0h-2.59a1.44,1.44,0,0,0,1.3.81,1.43,1.43,0,0,0,1.29-.81Zm-3.75,0h-2.59a1.44,1.44,0,0,0,1.3.81,1.43,1.43,0,0,0,1.29-.81Zm-3.75,0h-1.58a7.94,7.94,0,0,0-1,0,1.45,1.45,0,0,0,1.27.76,1.43,1.43,0,0,0,1.29-.81Zm-4,.35a11.78,11.78,0,0,0-1.17.45h.12a1.44,1.44,0,0,0,1.05-.46Zm-3.52,2.12a8.8,8.8,0,0,0-1.51,2.07l.23,0a1.43,1.43,0,0,0,1.28-2.09Zm-2,3.14a8.4,8.4,0,0,0-.45,2.14,1.44,1.44,0,0,0,2.58-.88,1.45,1.45,0,0,0-2.13-1.26Zm-.47,4.16v1.7a1.44,1.44,0,1,0,0-1.7Zm0,3.75v1.7a1.44,1.44,0,1,0,1.16-2.29,1.42,1.42,0,0,0-1.16.59Zm0,3.75v1.69a1.42,1.42,0,0,0,1.16.59,1.44,1.44,0,1,0,0-2.87,1.42,1.42,0,0,0-1.16.59Zm0,3.75V428a1.42,1.42,0,0,0,1.16.59,1.44,1.44,0,1,0,0-2.87,1.42,1.42,0,0,0-1.16.59Zm0,3.72a8.32,8.32,0,0,0,.45,2.13,1.37,1.37,0,0,0,.69.18,1.44,1.44,0,1,0,0-2.87,1.46,1.46,0,0,0-1.14.56Zm.91,3.21a8.55,8.55,0,0,0,1.51,2.06,1.39,1.39,0,0,0,.16-.65,1.44,1.44,0,0,0-1.44-1.43.9.9,0,0,0-.23,0ZM479.5,437a8.3,8.3,0,0,0,1.17.45,1.43,1.43,0,0,0-1.05-.45Zm2.6.75a7.93,7.93,0,0,0,1,.06h1.58a1.43,1.43,0,0,0-1.29-.81,1.44,1.44,0,0,0-1.27.75Zm3.72.06h2.59a1.43,1.43,0,0,0-1.29-.81,1.44,1.44,0,0,0-1.3.81Zm3.75,0h2.59a1.43,1.43,0,0,0-1.29-.81,1.44,1.44,0,0,0-1.3.81Zm3.75,0h2.59a1.44,1.44,0,0,0-2.59,0Zm3.75,0h1.58a7.93,7.93,0,0,0,1-.06,1.44,1.44,0,0,0-2.56.06Zm4-.36a8.3,8.3,0,0,0,1.17-.45h-.12a1.45,1.45,0,0,0-1.05.45Zm3.52-2.12a8.55,8.55,0,0,0,1.51-2.06.9.9,0,0,0-.23,0,1.44,1.44,0,0,0-1.44,1.43,1.39,1.39,0,0,0,.16.65Zm2-3.14A8.32,8.32,0,0,0,507,430a1.44,1.44,0,1,0-1.14,2.31,1.34,1.34,0,0,0,.69-.18ZM507,428v-1.69a1.42,1.42,0,0,0-1.16-.59,1.44,1.44,0,1,0,0,2.87A1.42,1.42,0,0,0,507,428Zm0-3.75v-1.69a1.42,1.42,0,0,0-1.16-.59,1.44,1.44,0,1,0,0,2.87,1.42,1.42,0,0,0,1.16-.59Zm0-3.75v-1.69a1.42,1.42,0,0,0-1.16-.59,1.44,1.44,0,1,0,0,2.87,1.42,1.42,0,0,0,1.16-.59Zm0-3.74v-1.7a1.43,1.43,0,1,0,0,1.7Zm0-3.72a8.4,8.4,0,0,0-.45-2.14A1.44,1.44,0,1,0,507,413Zm-.91-3.21a8.6,8.6,0,0,0-1.51-2.07,1.43,1.43,0,0,0,1.28,2.09l.23,0Zm-3.86-3.74a11.78,11.78,0,0,0-1.17-.45,1.46,1.46,0,0,0,1.05.46Zm-22.61,30a1.44,1.44,0,1,1,1.43-1.44,1.44,1.44,0,0,1-1.43,1.44Zm3.75,0a1.44,1.44,0,1,1,1.43-1.44,1.44,1.44,0,0,1-1.43,1.44Zm3.75,0a1.44,1.44,0,1,1,1.43-1.44,1.43,1.43,0,0,1-1.43,1.44Zm3.75,0a1.44,1.44,0,1,1,1.43-1.44,1.43,1.43,0,0,1-1.43,1.44Zm3.74,0a1.44,1.44,0,1,1,1.44-1.44,1.43,1.43,0,0,1-1.44,1.44Zm3.75,0a1.44,1.44,0,1,1,1.44-1.44,1.43,1.43,0,0,1-1.44,1.44Zm3.75,0a1.44,1.44,0,1,1,1.44-1.44,1.43,1.43,0,0,1-1.44,1.44Zm-22.49-6.62a1.44,1.44,0,1,0,1.43,1.43,1.44,1.44,0,0,0-1.43-1.43Zm3.75,0a1.44,1.44,0,1,0,1.43,1.43,1.44,1.44,0,0,0-1.43-1.43Zm3.75,0a1.44,1.44,0,1,0,1.43,1.43,1.43,1.43,0,0,0-1.43-1.43Zm3.75,0a1.44,1.44,0,1,0,1.43,1.43,1.43,1.43,0,0,0-1.43-1.43Zm3.74,0a1.44,1.44,0,1,0,1.44,1.43,1.43,1.43,0,0,0-1.44-1.43Zm3.75,0a1.44,1.44,0,1,0,1.44,1.43,1.43,1.43,0,0,0-1.44-1.43Zm3.75,0a1.44,1.44,0,1,0,1.44,1.43,1.43,1.43,0,0,0-1.44-1.43Zm-22.49-.88a1.44,1.44,0,1,1,1.43-1.43,1.44,1.44,0,0,1-1.43,1.43Zm3.75,0a1.44,1.44,0,1,1,1.43-1.43,1.44,1.44,0,0,1-1.43,1.43Zm3.75,0a1.44,1.44,0,1,1,1.43-1.43,1.43,1.43,0,0,1-1.43,1.43Zm3.75,0a1.44,1.44,0,1,1,1.43-1.43,1.43,1.43,0,0,1-1.43,1.43Zm3.74,0a1.44,1.44,0,1,1,1.44-1.43,1.43,1.43,0,0,1-1.44,1.43Zm3.75,0a1.44,1.44,0,1,1,1.44-1.43,1.43,1.43,0,0,1-1.44,1.43Zm3.75,0a1.44,1.44,0,1,1,1.44-1.43,1.43,1.43,0,0,1-1.44,1.43ZM479.62,422a1.44,1.44,0,1,0,0,2.87,1.44,1.44,0,0,0,0-2.87Zm3.75,0a1.44,1.44,0,1,0,0,2.87,1.44,1.44,0,0,0,0-2.87Zm3.75,0a1.44,1.44,0,1,0,1.43,1.44,1.44,1.44,0,0,0-1.43-1.44Zm3.75,0a1.44,1.44,0,1,0,1.43,1.44,1.44,1.44,0,0,0-1.43-1.44Zm3.74,0a1.44,1.44,0,1,0,1.44,1.44,1.44,1.44,0,0,0-1.44-1.44Zm3.75,0a1.44,1.44,0,1,0,1.44,1.44,1.44,1.44,0,0,0-1.44-1.44Zm3.75,0a1.44,1.44,0,1,0,1.44,1.44,1.44,1.44,0,0,0-1.44-1.44Zm-22.49-.88a1.44,1.44,0,1,1,1.43-1.43,1.44,1.44,0,0,1-1.43,1.43Zm3.75,0a1.44,1.44,0,1,1,1.43-1.43,1.44,1.44,0,0,1-1.43,1.43Zm3.75,0a1.44,1.44,0,1,1,1.43-1.43,1.43,1.43,0,0,1-1.43,1.43Zm3.75,0a1.44,1.44,0,1,1,1.43-1.43,1.43,1.43,0,0,1-1.43,1.43Zm3.74,0a1.44,1.44,0,1,1,1.44-1.43,1.43,1.43,0,0,1-1.44,1.43Zm3.75,0a1.44,1.44,0,1,1,1.44-1.43,1.43,1.43,0,0,1-1.44,1.43Zm3.75,0a1.44,1.44,0,1,1,1.44-1.43,1.43,1.43,0,0,1-1.44,1.43Zm-22.49-6.62a1.44,1.44,0,1,0,0,2.87,1.44,1.44,0,0,0,0-2.87Zm3.75,0a1.44,1.44,0,1,0,0,2.87,1.44,1.44,0,0,0,0-2.87Zm3.75,0a1.44,1.44,0,1,0,1.43,1.44,1.44,1.44,0,0,0-1.43-1.44Zm3.75,0a1.44,1.44,0,1,0,1.43,1.44,1.44,1.44,0,0,0-1.43-1.44Zm3.74,0a1.44,1.44,0,1,0,1.44,1.44,1.44,1.44,0,0,0-1.44-1.44Zm3.75,0a1.44,1.44,0,1,0,1.44,1.44,1.44,1.44,0,0,0-1.44-1.44Zm3.75,0a1.44,1.44,0,1,0,1.44,1.44,1.44,1.44,0,0,0-1.44-1.44Zm-22.49-.87a1.44,1.44,0,1,1,0-2.87,1.44,1.44,0,0,1,0,2.87Zm3.75,0a1.44,1.44,0,1,1,0-2.87,1.44,1.44,0,0,1,0,2.87Zm3.75,0a1.44,1.44,0,1,1,1.43-1.44,1.44,1.44,0,0,1-1.43,1.44Zm3.75,0a1.44,1.44,0,1,1,1.43-1.44,1.44,1.44,0,0,1-1.43,1.44Zm3.74,0a1.44,1.44,0,1,1,1.44-1.44,1.44,1.44,0,0,1-1.44,1.44Zm3.75,0a1.44,1.44,0,1,1,1.44-1.44,1.44,1.44,0,0,1-1.44,1.44Zm3.75,0a1.44,1.44,0,1,1,1.44-1.44,1.44,1.44,0,0,1-1.44,1.44ZM479.62,407a1.44,1.44,0,1,0,1.43,1.43,1.44,1.44,0,0,0-1.43-1.43Zm3.75,0a1.44,1.44,0,1,0,1.43,1.43,1.44,1.44,0,0,0-1.43-1.43Zm3.75,0a1.44,1.44,0,1,0,1.43,1.43,1.43,1.43,0,0,0-1.43-1.43Zm3.75,0a1.44,1.44,0,1,0,1.43,1.43,1.43,1.43,0,0,0-1.43-1.43Zm3.74,0a1.44,1.44,0,1,0,1.44,1.43,1.43,1.43,0,0,0-1.44-1.43Zm3.75,0a1.44,1.44,0,1,0,1.44,1.43,1.43,1.43,0,0,0-1.44-1.43Zm3.75,0a1.44,1.44,0,1,0,1.44,1.43A1.43,1.43,0,0,0,502.11,407Z"/><path class="cls-25" d="M466.22,435.71H431.71a1,1,0,0,0-1,1h0a1,1,0,0,0,1,1h34.51a1,1,0,0,0,1-1h0A1,1,0,0,0,466.22,435.71Z"/><path class="cls-25" d="M466.22,431.36H431.71a1,1,0,0,0-1,1h0a1,1,0,0,0,1,1h34.51a1,1,0,0,0,1-1h0A1,1,0,0,0,466.22,431.36Z"/><path class="cls-25" d="M466.22,427H431.71a1,1,0,0,0-1,1h0a1,1,0,0,0,1,1h34.51a1,1,0,0,0,1-1h0A1,1,0,0,0,466.22,427Z"/><path class="cls-25" d="M466.22,422.67H437.56a1,1,0,0,0-1,1h0a1,1,0,0,0,1,1h28.66a1,1,0,0,0,1-1h0A1,1,0,0,0,466.22,422.67Z"/><path class="cls-25" d="M466.22,418.32H431.71a1,1,0,0,0-1,1h0a1,1,0,0,0,1,1h34.51a1,1,0,0,0,1-1h0A1,1,0,0,0,466.22,418.32Z"/><path class="cls-25" d="M466.22,414H431.71a1,1,0,0,0-1,1h0a1,1,0,0,0,1,1h34.51a1,1,0,0,0,1-1h0A1,1,0,0,0,466.22,414Z"/><path class="cls-25" d="M459.81,409.63h-28.1a1,1,0,0,0-1,1h0a1,1,0,0,0,1,1h28.1a1,1,0,0,0,1-1h0A1,1,0,0,0,459.81,409.63Z"/><path class="cls-25" d="M466.22,405.29H431.71a1,1,0,0,0-1,1h0a1,1,0,0,0,1,1h34.51a1,1,0,0,0,1-1h0A1,1,0,0,0,466.22,405.29Z"/><path class="cls-25" d="M433.23,422.67h-1.52a1,1,0,0,0-1,1h0a1,1,0,0,0,1,1h1.52a1,1,0,0,0,1-1h0A1,1,0,0,0,433.23,422.67Z"/><path class="cls-25" d="M466.22,409.63h-2.45a1,1,0,0,0-1,1h0a1,1,0,0,0,1,1h2.45a1,1,0,0,0,1-1h0A1,1,0,0,0,466.22,409.63Z"/><path class="cls-45" d="M453.76,343.89h-4.54a12.88,12.88,0,0,0-9.63,4.35l42.26,42.26a12.89,12.89,0,0,0,4.2-9.5v-4.82l-32.29-32.29ZM437.28,352l40.9,40.9a12.71,12.71,0,0,1-5,1H471.8l-35.46-35.46v-1.64A12.89,12.89,0,0,1,437.28,352Z"/></svg>